<?xml version="1.0" encoding="UTF-8"?>
<svg id="Layer_2" data-name="Layer 2" xmlns="http://www.w3.org/2000/svg" viewBox="0 0 116.99 116.99">
  <defs>
    <style>
      .cls-1 {
        fill: #4BAA83;
      }
    </style>
  </defs>
  <g id="Layer_1-2" data-name="Layer 1">
    <path class="cls-1" d="M116.79,63.25c.13-1.57.2-3.16.2-4.75,0-.45-.01-.9-.03-1.34v-.33s0,0,0,0C116.08,25.34,90.19,0,58.49,0S.95,25.3.03,56.75c-.02.58-.03,1.17-.03,1.75,0,1.71.07,3.4.22,5.08,2.59,29.88,27.73,53.41,58.27,53.41s55.66-23.5,58.27-53.34c0,0,0,0,0,0h.02s.01-.4.01-.4ZM58.49,5.74c28.54,0,51.86,22.78,52.73,51.12l-7.97.04c-.57,0-1.02-.15-1.46-.87l-.97-2.91c-1.03-3.09-3.07-5.32-5.71-6.32-.95-.35-1.94-.53-2.94-.53-2.73,0-5.4,1.33-7.06,3.53-.1.14-.2.26-.28.39-1.21,1.77-2.09,3.59-2.67,5.55l-.95,3.09-2.44,10.89c-.23.97-.62,1.84-1.12,2.51-.42.54-.67.67-.75.7-.26.16-.51.19-.76.2-.27,0-.62-.03-.92-.21-.15-.09-.31-.29-.62-.69-.51-.67-.92-1.59-1.13-2.5l-.57-2.53v-.05s-2.49-11.06-2.49-11.06l-.38-1.59-.19-.8-.74-3.11-.19-.78h-.01c-.41-1.71-.84-3.45-1.37-5.19-1.04-3.39-2.61-5.48-5.08-6.76-1.13-.6-2.36-.92-3.77-1h-.08s-.07,0-.07,0c-1.36.05-2.64.39-3.8.98-.31.16-1.17.64-2.09,1.5-1.34,1.26-2.3,3-3,5.3-.52,1.73-.96,3.46-1.37,5.17l-.19.78-.75,3.11-.19.8-.38,1.61-2.21,9.89-.28,1.2h.01l-.56,2.52c-.23.97-.62,1.84-1.12,2.51-.42.54-.67.67-.75.7-.26.16-.51.19-.76.2-.27,0-.62-.03-.92-.21-.15-.09-.31-.29-.62-.69-.51-.67-.92-1.59-1.13-2.5l-3.4-13.99c-.58-1.96-1.46-3.78-2.67-5.55-.08-.13-.18-.25-.28-.39-1.66-2.19-4.33-3.53-7.06-3.53-1,0-1.99.18-2.94.53-2.64,1-4.67,3.23-5.7,6.32l-.97,2.91c-.44.72-.89.87-1.46.87l-8.19-.09h-.02C6.67,28.49,29.97,5.74,58.49,5.74ZM58.49,111.25c-27.36,0-49.91-20.92-52.5-47.61,0,0,0,0,0,0h.02l7.88.09c3.34,0,6.01-1.56,7.5-4.42.49-.95.8-1.9,1.11-2.82.46-1.39.86-2.59,1.71-3.15.25-.16.53-.24.83-.24.63,0,1.26.32,1.67.87.7.96,1.24,2.09,1.67,3.47l.97,3.33c.23.98.44,1.94.66,2.9.63,2.84,1.27,5.78,2.16,8.7.7,2.29,1.67,4.03,3,5.29.92.88,1.77,1.35,2.09,1.5,1.16.6,2.44.94,3.8.99h.07s.08,0,.08,0c1.41-.08,2.64-.41,3.77-1,2.47-1.28,4.04-3.38,5.08-6.77.52-1.74.96-3.47,1.36-5.19l.19-.78.74-3.11.19-.8.38-1.59,2.11-9.34.07-.31.33-1.45h-.01l.56-2.52c.21-.92.62-1.84,1.13-2.51.3-.39.47-.58.62-.68.3-.18.65-.21.92-.21.25.01.5.04.76.19.08.04.33.17.75.7.5.69.89,1.54,1.12,2.52l3.05,13.61.38,1.6.19.8.75,3.11.19.78h.02c.41,1.72.84,3.45,1.37,5.18.7,2.29,1.67,4.03,3,5.29.92.88,1.77,1.35,2.09,1.5,1.16.6,2.44.94,3.8.99h.07s.08,0,.08,0c1.41-.08,2.64-.41,3.77-1,2.47-1.28,4.04-3.38,5.08-6.77.84-2.81,1.47-5.63,2.08-8.34.24-1.07.48-2.16.74-3.26l.26-1.13h.01l.69-2.2c.43-1.39.97-2.51,1.67-3.47.41-.54,1.04-.87,1.67-.87.3,0,.58.08.83.24.86.56,1.25,1.76,1.71,3.15.3.92.62,1.87,1.11,2.82,1.49,2.86,4.16,4.42,7.5,4.42l7.67-.04s0,0,0,0c-2.63,26.66-25.17,47.56-52.51,47.56Z"/>
  </g>
</svg>