<?xml version="1.0" encoding="UTF-8"?>
<svg id="Layer_2" data-name="Layer 2" xmlns="http://www.w3.org/2000/svg" viewBox="0 0 439.25 116.99">
  <defs>
    <style>
      .cls-1 {
        fill: #4BAA83;
      }
    </style>
  </defs>
  <g id="Layer_1-2" data-name="Layer 1">
    <path class="cls-1" d="M116.79,63.25c.13-1.57.2-3.16.2-4.75,0-.45-.01-.9-.03-1.34v-.33s0,0,0,0C116.08,25.34,90.19,0,58.49,0S.95,25.3.03,56.75c-.02.58-.03,1.17-.03,1.75,0,1.71.07,3.4.22,5.08,2.59,29.88,27.73,53.41,58.27,53.41s55.66-23.5,58.27-53.34c0,0,0,0,0,0h.02s.01-.4.01-.4ZM58.49,5.74c28.54,0,51.86,22.78,52.73,51.12l-7.97.04c-.57,0-1.02-.15-1.46-.87l-.97-2.91c-1.03-3.09-3.07-5.32-5.71-6.32-.95-.35-1.94-.53-2.94-.53-2.73,0-5.4,1.33-7.06,3.53-.1.14-.2.26-.28.39-1.21,1.77-2.09,3.59-2.67,5.55l-.95,3.09-2.44,10.89c-.23.97-.62,1.84-1.12,2.51-.42.54-.67.67-.75.7-.26.16-.51.19-.76.2-.27,0-.62-.03-.92-.21-.15-.09-.31-.29-.62-.69-.51-.67-.92-1.59-1.13-2.5l-.57-2.53v-.05s-2.49-11.06-2.49-11.06l-.38-1.59-.19-.8-.74-3.11-.19-.78h-.01c-.41-1.71-.84-3.45-1.37-5.19-1.04-3.39-2.61-5.48-5.08-6.76-1.13-.6-2.36-.92-3.77-1h-.08s-.07,0-.07,0c-1.36.05-2.64.39-3.8.98-.31.16-1.17.64-2.09,1.5-1.34,1.26-2.3,3-3,5.3-.52,1.73-.96,3.46-1.37,5.17l-.19.78-.75,3.11-.19.8-.38,1.61-2.21,9.89-.28,1.2h.01l-.56,2.52c-.23.97-.62,1.84-1.12,2.51-.42.54-.67.67-.75.7-.26.16-.51.19-.76.2-.27,0-.62-.03-.92-.21-.15-.09-.31-.29-.62-.69-.51-.67-.92-1.59-1.13-2.5l-3.4-13.99c-.58-1.96-1.46-3.78-2.67-5.55-.08-.13-.18-.25-.28-.39-1.66-2.19-4.33-3.53-7.06-3.53-1,0-1.99.18-2.94.53-2.64,1-4.67,3.23-5.7,6.32l-.97,2.91c-.44.72-.89.87-1.46.87l-8.19-.09h-.02C6.67,28.49,29.97,5.74,58.49,5.74ZM58.49,111.25c-27.36,0-49.91-20.92-52.5-47.61,0,0,0,0,0,0h.02l7.88.09c3.34,0,6.01-1.56,7.5-4.42.49-.95.8-1.9,1.11-2.82.46-1.39.86-2.59,1.71-3.15.25-.16.53-.24.83-.24.63,0,1.26.32,1.67.87.7.96,1.24,2.09,1.67,3.47l.97,3.33c.23.98.44,1.94.66,2.9.63,2.84,1.27,5.78,2.16,8.7.7,2.29,1.67,4.03,3,5.29.92.88,1.77,1.35,2.09,1.5,1.16.6,2.44.94,3.8.99h.07s.08,0,.08,0c1.41-.08,2.64-.41,3.77-1,2.47-1.28,4.04-3.38,5.08-6.77.52-1.74.96-3.47,1.36-5.19l.19-.78.74-3.11.19-.8.38-1.59,2.11-9.34.07-.31.33-1.45h-.01l.56-2.52c.21-.92.62-1.84,1.13-2.51.3-.39.47-.58.62-.68.3-.18.65-.21.92-.21.25.01.5.04.76.19.08.04.33.17.75.7.5.69.89,1.54,1.12,2.52l3.05,13.61.38,1.6.19.8.75,3.11.19.78h.02c.41,1.72.84,3.45,1.37,5.18.7,2.29,1.67,4.03,3,5.29.92.88,1.77,1.35,2.09,1.5,1.16.6,2.44.94,3.8.99h.07s.08,0,.08,0c1.41-.08,2.64-.41,3.77-1,2.47-1.28,4.04-3.38,5.08-6.77.84-2.81,1.47-5.63,2.08-8.34.24-1.07.48-2.16.74-3.26l.26-1.13h.01l.69-2.2c.43-1.39.97-2.51,1.67-3.47.41-.54,1.04-.87,1.67-.87.3,0,.58.08.83.24.86.56,1.25,1.76,1.71,3.15.3.92.62,1.87,1.11,2.82,1.49,2.86,4.16,4.42,7.5,4.42l7.67-.04s0,0,0,0c-2.63,26.66-25.17,47.56-52.51,47.56Z"/>
    <g>
      <g>
        <path class="cls-1" d="M142.97,42.18l5.24-19.87c.53-2.01.96-4.08,1.28-6.22.11-.75.24-1.52.37-2.3.14.84.28,1.68.42,2.48.36,2.17.78,4.18,1.27,6.04l5.24,19.87h7.39l9.73-35.97h-6.95l-4.66,19.14c-.32,1.38-.63,2.84-.92,4.37-.29,1.53-.57,3.07-.83,4.61-.09.5-.17.99-.26,1.48-.09-.49-.18-.98-.28-1.48-.28-1.55-.57-3.08-.87-4.61-.3-1.53-.62-2.99-.98-4.37l-4.85-19.14h-6.83l-4.88,19.14c-.34,1.38-.66,2.84-.97,4.37-.31,1.53-.6,3.07-.87,4.61-.09.52-.19,1.04-.28,1.56-.09-.52-.17-1.03-.26-1.56-.27-1.55-.54-3.08-.82-4.61-.28-1.53-.58-2.99-.91-4.37l-4.68-19.14h-6.93l9.7,35.97h7.39Z"/>
        <path class="cls-1" d="M180.86,41.02c1.96,1.14,4.29,1.71,7.01,1.71,2.01,0,3.8-.3,5.37-.91,1.57-.6,2.88-1.45,3.92-2.53,1.05-1.09,1.79-2.35,2.22-3.8l-5.77-1.18c-.27.76-.68,1.4-1.23,1.92-.55.52-1.19.92-1.94,1.18s-1.58.4-2.5.4c-1.38,0-2.6-.3-3.65-.89s-1.86-1.48-2.44-2.66c-.52-1.05-.79-2.33-.85-3.81h18.78v-1.98c0-2.37-.33-4.41-.98-6.12-.65-1.71-1.55-3.13-2.7-4.24-1.15-1.11-2.47-1.93-3.96-2.46-1.49-.53-3.05-.8-4.7-.8-2.58,0-4.82.59-6.72,1.77-1.91,1.18-3.38,2.82-4.42,4.91-1.04,2.09-1.56,4.53-1.56,7.31s.53,5.26,1.58,7.34c1.05,2.08,2.56,3.69,4.51,4.83ZM183.96,20.75c.97-.65,2.14-.98,3.52-.98s2.54.32,3.46.97c.93.64,1.62,1.54,2.09,2.69.33.82.54,1.74.64,2.74h-12.64c.08-1.01.32-1.95.72-2.81.51-1.09,1.24-1.95,2.21-2.61Z"/>
        <path class="cls-1" d="M208.3,11.38c1.01,0,1.88-.34,2.6-1.01.72-.68,1.07-1.49,1.07-2.44s-.36-1.76-1.07-2.43c-.72-.67-1.58-1-2.6-1s-1.85.33-2.57,1c-.72.67-1.07,1.48-1.07,2.45s.36,1.74,1.07,2.41c.72.68,1.57,1.01,2.57,1.01Z"/>
        <path class="cls-1" d="M207.16,51.35c1.4-.61,2.47-1.55,3.2-2.8.73-1.26,1.1-2.86,1.1-4.8V15.19h-6.3v28.49c0,1.13-.26,1.98-.78,2.57-.52.59-1.4.88-2.62.88h-.92v5.14h1.28c1.96,0,3.65-.31,5.05-.92Z"/>
        <path class="cls-1" d="M222.36,41.03c1.68,1.09,3.59,1.63,5.71,1.63,1.56,0,2.85-.26,3.86-.78,1.01-.52,1.83-1.15,2.45-1.9.62-.74,1.09-1.43,1.41-2.08h.39v4.27h6.16V6.21h-6.28v13.45h-.27c-.31-.64-.76-1.34-1.36-2.08-.6-.74-1.42-1.38-2.44-1.92-1.02-.54-2.34-.81-3.95-.81-2.06,0-3.93.53-5.61,1.59-1.68,1.06-3.02,2.63-4.01,4.7s-1.48,4.6-1.48,7.59.48,5.48,1.45,7.56c.97,2.08,2.29,3.66,3.97,4.74ZM224.09,24.23c.48-1.31,1.2-2.34,2.15-3.09s2.13-1.12,3.55-1.12,2.53.36,3.49,1.09c.96.72,1.68,1.73,2.17,3.03.49,1.3.74,2.82.74,4.57s-.25,3.29-.75,4.61c-.5,1.32-1.22,2.35-2.17,3.08-.95.73-2.11,1.1-3.48,1.1s-2.58-.38-3.54-1.15c-.96-.76-1.68-1.81-2.16-3.14-.48-1.33-.72-2.83-.72-4.5s.24-3.17.72-4.48Z"/>
        <path class="cls-1" d="M253.89,41.02c1.96,1.14,4.29,1.71,7.01,1.71,2.01,0,3.8-.3,5.37-.91s2.88-1.45,3.92-2.53c1.05-1.09,1.79-2.35,2.22-3.8l-5.77-1.18c-.27.76-.68,1.4-1.23,1.92-.55.52-1.2.92-1.94,1.18s-1.58.4-2.5.4c-1.38,0-2.6-.3-3.64-.89-1.05-.6-1.86-1.48-2.44-2.66-.52-1.05-.79-2.33-.85-3.81h18.78v-1.98c0-2.37-.33-4.41-.98-6.12-.65-1.71-1.55-3.13-2.7-4.24-1.15-1.11-2.47-1.93-3.96-2.46s-3.05-.8-4.7-.8c-2.58,0-4.82.59-6.72,1.77-1.91,1.18-3.38,2.82-4.42,4.91-1.04,2.09-1.56,4.53-1.56,7.31s.53,5.26,1.58,7.34c1.05,2.08,2.56,3.69,4.51,4.83ZM256.99,20.75c.97-.65,2.14-.98,3.52-.98s2.54.32,3.46.97c.93.64,1.62,1.54,2.09,2.69.33.82.54,1.74.64,2.74h-12.64c.08-1.01.32-1.95.72-2.81.51-1.09,1.24-1.95,2.21-2.61Z"/>
        <path class="cls-1" d="M297.43,16.03c-1.38-.79-3-1.18-4.85-1.18-2.21,0-4.04.58-5.5,1.75-1.18.94-2.12,2.26-2.84,3.96l-.08-5.37h-5.94v26.99h6.28v-15.81c0-1.3.25-2.42.75-3.34.5-.92,1.18-1.63,2.05-2.11.87-.48,1.86-.72,2.97-.72,1.64,0,2.93.52,3.86,1.54.93,1.03,1.4,2.45,1.4,4.25v16.2h6.28v-17.16c0-2.17-.38-4.02-1.15-5.53-.76-1.51-1.84-2.66-3.22-3.45Z"/>
        <path class="cls-1" d="M344.15,25.05c-1.01-.81-2.14-1.48-3.39-2.02-1.26-.53-2.55-.96-3.89-1.28l-3.36-.87c-.97-.24-1.92-.56-2.86-.94-.94-.39-1.72-.9-2.34-1.55-.62-.64-.93-1.46-.93-2.46,0-.92.26-1.73.78-2.44.52-.71,1.27-1.27,2.25-1.68.97-.41,2.14-.62,3.49-.62,1.95,0,3.53.42,4.74,1.27,1.21.85,1.9,2.04,2.06,3.59h6.25c-.05-2-.62-3.77-1.7-5.33s-2.6-2.78-4.53-3.67c-1.93-.89-4.18-1.33-6.74-1.33s-4.76.44-6.74,1.32-3.54,2.11-4.68,3.71-1.71,3.45-1.71,5.58c0,2.54.84,4.6,2.52,6.16,1.68,1.56,4.03,2.73,7.04,3.5l4.08,1.06c1.3.32,2.44.7,3.42,1.12.97.43,1.73.95,2.27,1.56s.81,1.38.81,2.32c0,1.03-.31,1.94-.92,2.72-.61.78-1.46,1.39-2.55,1.82-1.09.43-2.34.65-3.75.65s-2.58-.21-3.69-.62c-1.11-.41-2-1.03-2.68-1.87s-1.07-1.88-1.18-3.14h-6.35c.1,2.37.72,4.38,1.88,6.03,1.16,1.66,2.76,2.92,4.82,3.79s4.47,1.3,7.25,1.3,5.31-.45,7.34-1.34c2.03-.89,3.58-2.14,4.66-3.74,1.08-1.6,1.62-3.46,1.62-5.56,0-1.56-.3-2.92-.89-4.08-.6-1.16-1.4-2.14-2.4-2.96Z"/>
        <path class="cls-1" d="M359.35,37.91h.27c.32.64.79,1.34,1.4,2.08.61.74,1.43,1.37,2.46,1.9,1.03.52,2.31.78,3.84.78,2.14,0,4.05-.54,5.73-1.63,1.68-1.09,3.01-2.67,3.97-4.74.97-2.08,1.45-4.59,1.45-7.56s-.49-5.52-1.48-7.59c-.99-2.07-2.32-3.63-3.99-4.7-1.67-1.06-3.56-1.59-5.65-1.59-1.59,0-2.9.27-3.92.81-1.02.54-1.83,1.18-2.43,1.92-.6.74-1.05,1.43-1.38,2.08h-.41v-4.47h-6.13v37.08h6.28v-14.36ZM359.96,24.13c.49-1.3,1.21-2.31,2.16-3.03.95-.72,2.12-1.09,3.5-1.09s2.6.37,3.55,1.12c.95.75,1.66,1.78,2.14,3.09.47,1.31.71,2.8.71,4.48s-.24,3.17-.72,4.5c-.48,1.33-1.2,2.37-2.15,3.14-.95.76-2.12,1.15-3.52,1.15s-2.53-.37-3.49-1.1-1.68-1.76-2.17-3.08-.74-2.86-.74-4.61.25-3.28.74-4.57Z"/>
        <rect class="cls-1" x="383.92" y="15.19" width="6.28" height="26.99"/>
        <path class="cls-1" d="M387.06,11.38c1.01,0,1.88-.34,2.6-1.01s1.07-1.49,1.07-2.44-.36-1.76-1.07-2.43-1.58-1-2.6-1-1.86.33-2.57,1-1.07,1.48-1.07,2.45.36,1.74,1.07,2.41,1.57,1.01,2.57,1.01Z"/>
        <path class="cls-1" d="M403.14,26.29c0-1.14.26-2.15.78-3.03.52-.88,1.25-1.57,2.17-2.06.92-.5,1.97-.75,3.13-.75.56,0,1.13.03,1.71.1.58.06,1,.14,1.26.22v-5.77c-.31-.05-.68-.09-1.11-.12s-.83-.05-1.18-.05c-1.55,0-2.92.42-4.13,1.27-1.21.84-2.05,2.05-2.53,3.61h-.29v-4.51h-6.08v26.99h6.28v-15.88Z"/>
        <path class="cls-1" d="M427.33,42.73c2.01,0,3.8-.3,5.37-.91s2.88-1.45,3.92-2.53c1.05-1.09,1.79-2.35,2.22-3.8l-5.77-1.18c-.27.76-.68,1.4-1.23,1.92-.55.52-1.2.92-1.94,1.18s-1.58.4-2.5.4c-1.38,0-2.6-.3-3.64-.89-1.05-.6-1.86-1.48-2.44-2.66-.52-1.05-.79-2.33-.85-3.81h18.78v-1.98c0-2.37-.33-4.41-.98-6.12-.65-1.71-1.55-3.13-2.7-4.24-1.15-1.11-2.47-1.93-3.96-2.46s-3.05-.8-4.7-.8c-2.58,0-4.82.59-6.72,1.77-1.91,1.18-3.38,2.82-4.42,4.91-1.04,2.09-1.56,4.53-1.56,7.31s.53,5.26,1.58,7.34c1.05,2.08,2.56,3.69,4.51,4.83s4.29,1.71,7.01,1.71ZM423.42,20.75c.97-.65,2.14-.98,3.52-.98s2.54.32,3.46.97c.93.64,1.62,1.54,2.09,2.69.33.82.54,1.74.64,2.74h-12.64c.08-1.01.32-1.95.72-2.81.51-1.09,1.24-1.95,2.21-2.61Z"/>
      </g>
      <g>
        <path class="cls-1" d="M156.98,104.96h-.84c-.79,0-1.44.24-1.95.71-.51.48-.76,1.26-.76,2.34s.25,1.81.76,2.29c.51.48,1.16.71,1.95.71h.84c.79,0,1.44-.24,1.94-.71.51-.48.76-1.24.76-2.29s-.25-1.86-.76-2.34c-.51-.48-1.16-.71-1.94-.71Z"/>
        <path class="cls-1" d="M146.74,100.68c3.74,0,6.47-.79,8.17-2.36,1.71-1.58,2.56-4.04,2.56-7.39,0-.76-.05-1.67-.15-2.73-.1-1.07-.23-2.16-.39-3.27l-.69-4.43-4.83.79.79,4.43c.23,1.35.39,2.42.47,3.23.08.8.12,1.47.12,1.99,0,1.25-.44,2.11-1.31,2.59-.87.48-2.45.71-4.75.71h-5.81c-.1-1.45-.3-2.99-.59-4.63l-.74-4.33-4.78.79,1.03,6.25c.16.95.3,1.88.39,2.78.1.9.15,1.77.15,2.59.03,2.72-.62,4.8-1.97,6.23-1.35,1.43-3.6,2.14-6.75,2.14h-1.92v6.45h1.97c2,0,3.77-.29,5.32-.86,1.54-.57,2.86-1.38,3.94-2.41s1.95-2.27,2.61-3.72c.66-1.45,1.1-3.05,1.33-4.83h3.25s0,0,0,0h2.56Z"/>
        <path class="cls-1" d="M149.64,104.96h-.84c-.79,0-1.44.24-1.95.71-.51.48-.76,1.26-.76,2.34s.25,1.81.76,2.29c.51.48,1.16.71,1.95.71h.84c.79,0,1.44-.24,1.95-.71.51-.48.76-1.24.76-2.29s-.25-1.86-.76-2.34c-.51-.48-1.16-.71-1.95-.71Z"/>
        <polygon class="cls-1" points="260.99 74.43 259.61 71.47 247.84 76.94 249.17 79.84 260.99 74.43"/>
        <path class="cls-1" d="M255.32,104.96h-.84c-.79,0-1.44.24-1.95.71-.51.48-.76,1.26-.76,2.34s.25,1.81.76,2.29c.51.48,1.16.71,1.95.71h.84c.79,0,1.44-.24,1.94-.71.51-.48.76-1.24.76-2.29s-.25-1.86-.76-2.34c-.51-.48-1.16-.71-1.94-.71Z"/>
        <path class="cls-1" d="M297.38,83.78l-4.83.74.44,2.56c.33,1.94.49,3.43.49,4.48,0,2.1-.85,3.15-2.56,3.15h-.64c-.92,0-1.62-.33-2.12-.98-.49-.66-.74-1.72-.74-3.2v-3.3h-4.83v3.28c0,1.6-.33,2.72-.98,3.35-.66.64-1.71.95-3.15.95-.92,0-1.84-.12-2.76-.37-.92-.25-1.84-.6-2.76-1.06l2.07-4.09-4.28-2.07-1.97,4.04c-.26.56-.55,1.03-.86,1.4-.31.38-.67.68-1.08.91-.41.23-.89.39-1.45.49-.56.1-1.2.15-1.92.15h-2.41c-2.46,0-3.69-1.23-3.69-3.69v-7.24h-4.83v7.24c0,2.46-1.35,3.69-4.04,3.69h-76.82c-1.48,0-2.52-.25-3.13-.74-.61-.49-.91-1.44-.91-2.86v-26.4h-5.27v27.09c0,3.35.76,5.75,2.29,7.19,1.53,1.45,3.92,2.17,7.17,2.17h.05s0,0,0,0h5.27s0,0,0,0h10.54s0,0,0,0h10.54s0,0,0,0h10.54s0,0,0,0h10.54s0,0,0,0h5.27s0,0,0,0h10.54s0,0,0,0h10.54s0,0,0,0c2.17,0,3.8-.48,4.9-1.43,1.1-.95,1.86-2.51,2.29-4.68h.25c.46,2.1,1.36,3.64,2.71,4.63,1.35.98,3.28,1.48,5.81,1.48h0s0,0,0,0c1.97,0,3.59-.16,4.87-.47s2.41-.98,3.4-2l1.18.69c1.41.85,2.61,1.46,3.6,1.82.98.36,1.95.54,2.91.54,1.48,0,2.68-.52,3.6-1.56.92-1.04,1.51-2.62,1.77-4.74h.3c.39,2.12,1.17,3.7,2.34,4.74,1.16,1.04,2.86,1.56,5.1,1.56,5.02,0,7.53-3.23,7.53-9.7,0-1.54-.15-3.3-.44-5.27l-.34-2.51Z"/>
        <path class="cls-1" d="M327.91,81.96h.84c.79,0,1.44-.24,1.95-.71.51-.48.76-1.24.76-2.29s-.26-1.86-.76-2.34c-.51-.48-1.16-.71-1.95-.71h-.84c-.79,0-1.44.24-1.94.71-.51.48-.76,1.26-.76,2.34s.25,1.81.76,2.29c.51.48,1.16.71,1.94.71Z"/>
        <path class="cls-1" d="M342.39,85.75l-.89-4.38-4.73.94.94,4.43c.26,1.35.48,2.61.64,3.79.16,1.18.25,2.18.25,3,0,2.79-.7,4.85-2.09,6.18-1.4,1.33-3.6,1.99-6.62,1.99h-3.64c-2.66,0-4.75-.63-6.28-1.9s-2.29-3.03-2.29-5.29c0-1.12.2-2.39.59-3.82.39-1.43.9-2.83,1.53-4.21l-4.23-1.23c-.72,1.71-1.29,3.46-1.7,5.27-.41,1.81-.62,3.45-.62,4.92,0,4.2,1.26,7.44,3.79,9.73,2.53,2.28,6.2,3.42,11.03,3.42,5.25,0,9.1-1.22,11.55-3.64,2.45-2.43,3.67-6.24,3.67-11.43,0-1.05-.08-2.25-.25-3.59-.16-1.35-.38-2.74-.64-4.19Z"/>
        <rect class="cls-1" x="348.2" y="64.23" width="5.27" height="36.44"/>
        <path class="cls-1" d="M411.75,84.27c-1.43-.2-2.88-.48-4.36-.85l-10.24-2.69c-.69-.2-1.28-.36-1.77-.47-.49-.12-.91-.21-1.26-.27-.34-.07-.65-.11-.91-.12-.26-.02-.51-.03-.74-.03-3.68,0-5.52,2-5.52,6.01v3.79h4.97v-3.89l8.27,2.08,7.68,1.63v.24l-2.61,1.28c-1.54.75-2.96,1.34-4.26,1.77-1.3.43-2.59.75-3.87.96s-2.63.35-4.04.42c-1.41.07-2.97.1-4.68.1h-4.33c-.59,0-1.12-.08-1.6-.25-.48-.16-.91-.46-1.31-.89s-.78-1-1.16-1.72c-.38-.72-.76-1.66-1.16-2.81l-4.97-14.13-5.47,1.97,4.43,12.61c.26.66.47,1.25.62,1.77.15.53.22.97.22,1.33,0,.79-.29,1.34-.86,1.65-.57.31-1.58.47-3.03.47h-6.7v-3.35h-5.02v3.45c0,2.17.54,3.77,1.62,4.8s2.61,1.55,4.58,1.55h3.69c2.1,0,3.65-.46,4.65-1.38,1-.92,1.68-2.46,2.04-4.63l.2-.05c.52,1.18,1.08,2.16,1.65,2.93.57.77,1.22,1.39,1.95,1.85.72.46,1.54.79,2.46.99.92.2,2,.3,3.25.3h4.23c1.54,0,3.01-.07,4.41-.2,1.39-.13,2.84-.41,4.33-.84,1.49-.43,3.08-1.06,4.75-1.9,1.67-.84,3.58-1.95,5.71-3.32l5.22-3.4h3.89v-6.45h-.94c-1.28,0-2.63-.1-4.06-.3Z"/>
        <path class="cls-1" d="M401.63,104.96h-.84c-.79,0-1.44.24-1.95.71-.51.48-.76,1.26-.76,2.34s.25,1.81.76,2.29c.51.48,1.16.71,1.95.71h.84c.79,0,1.44-.24,1.94-.71.51-.48.76-1.24.76-2.29s-.25-1.86-.76-2.34c-.51-.48-1.16-.71-1.94-.71Z"/>
        <path class="cls-1" d="M436.64,84.33c-1.74-2.56-4.15-3.84-7.24-3.84-1.41,0-2.72.3-3.91.89-1.2.59-2.23,1.41-3.1,2.46-.87,1.05-1.55,2.28-2.04,3.69-.49,1.41-.74,2.94-.74,4.58,0,2.73.74,4.84,2.22,6.35,1.48,1.51,3.55,2.27,6.2,2.27,1.61,0,2.96-.37,4.06-1.11,1.1-.74,1.88-1.86,2.34-3.37h.3v1.23c0,2.59-.98,4.67-2.95,6.23-1.97,1.56-5.06,2.34-9.26,2.34h-3.25v6.45h3.6c2.69,0,5.06-.39,7.12-1.18,2.05-.79,3.77-1.94,5.15-3.45,1.38-1.51,2.41-3.34,3.1-5.49.69-2.15,1.03-4.6,1.03-7.36,0-4.56-.87-8.12-2.61-10.69ZM432.68,94c-.84.15-1.93.22-3.27.22h-1.03c-1.38,0-2.43-.23-3.15-.69-.72-.46-1.08-1.21-1.08-2.27,0-1.25.43-2.28,1.3-3.1.87-.82,2.01-1.23,3.42-1.23,1.64,0,3,.57,4.09,1.72,1.08,1.15,1.66,2.68,1.72,4.58-.49.36-1.16.62-1.99.76Z"/>
      </g>
    </g>
  </g>
</svg>