<?xml version="1.0" encoding="UTF-8"?>
<svg id="Layer_2" data-name="Layer 2" xmlns="http://www.w3.org/2000/svg" viewBox="0 0 628.59 608.15">
  <defs>
    <style>
      .cls-1 {
        fill: #4aaa83;
      }
    </style>
  </defs>
  <g id="Layer_1-2" data-name="Layer 1">
    <path class="cls-1" d="M627.7,266.76c-2.57-9.22-10.31-16.06-18.96-18.1-5.31-1.25-9.85-.43-12.37.23-1.71.68-4.47,1.81-7.78,3.39-12.04,5.76-15.89,10.05-24.87,12.24-2.04.5-5.17,1.09-9.18,1.13l-.04-.86c.94-4.02,1.88-8.03,2.83-12.05,1.12-3.87,2.69-9.53,4.39-16.42,0,0,3.68-14.92,5.95-28.18,12.93-75.41-15.84-131.83-15.84-131.83-1.02-2.84-18.66-50.65-50.65-67.3-7.06-3.68-21.32-11.09-38.67-8.48-3.84.58-6.74,1.39-8.94,2.19-9.14,3.32-23.2,10.56-35.29,22.46-60.95,60-63.84,134.63-63.84,134.63-1.1,28.45,4.66,49.54,6.25,55.06,3.61,12.53,18.25,60.65,64.49,89.55,12.03,7.52,23.15,11.83,31.04,14.35-1.43,5.54-4.11,10.03-6.4,15.24-9.74,22.15-21.28,48.43-41.33,74.46-7.4,9.6-18.41,22.36-33.95,35.71-6.14-9.12-9.96-17.78-13.6-27.37-6.47-14.1-12.93-28.2-19.4-42.3-3.18-9.66-13.43-36.33-40.89-53.51-8.28-5.18-33.09-20.7-59.32-12.66-2.91.89-21.77,9.68-34.54,26.71,0,0,0,0,0,0-.72.95-1.84,2.48-4.58,6.76-6.08,9.48-14.38,23.49-23.31,42.44-18.94,45.28-37.88,90.55-56.81,135.83-8.95-19.1-17.89-40.32-26.22-63.6-7.33-20.47-13.28-39.98-18.13-58.23-.51-3.92-3.42-13.5-11.02-23.33-8.39-10.87-22.37-14.51-35.1-11.88-23.97,4.95-36.76,27.61-29.6,50.75l8.5,27.47c8.95,28.94,17.52,57.32,30.15,84.88,10.63,23.19,20.88,44.33,38.94,62.48,21.61,21.71,48.65,26.4,74.34,8.51,19.86-13.84,36.29-41.34,46.5-63.3,5.47-11.78,11.83-25.03,22.18-51.93,7.37-19.17,16.88-45.09,27.02-76.44,1.34-2.88,6.58-13.48,13.51-13.51,8.8-.03,15.95,17.02,18.98,24.26,1.23,2.93,2.08,5.48,2.65,7.33l17.4,47.77c4.97,13.65,13.27,26.23,22.94,37.08,3.21,3.6,8.32,7.25,12.25,9.85,15.61,10.36,34.42,10.78,51.95,5.09,14.87-4.83,26.82-13.72,38.62-23.85,10.99-9.43,19.86-20.17,29.21-31.31,12.94-15.41,23.54-31.81,33.41-49.44,9.72-17.37,16.87-31.1,23.41-44.51,6.57-13.47,11.73-24.96,15.4-33.39l6.19-14.28c2.56-.26,6.29-.69,10.78-1.39,14.19-2.21,33.03-5.31,52.48-16.46,12.75-7.31,19.32-14.38,21.97-17.43,2.54-2.93,4.44-5.58,5.72-7.5,1.01-2.42,3.43-9.13,1.23-17.03ZM479.57,261.87c-4.74-1.89-11.63-5.09-18.99-10.43-27.7-20.1-46.67-59.26-39.42-98.68,5.97-32.44,27.31-52.17,35.17-58.75,1.96-1.33,6.41-3.93,11.67-3.13,5.82.88,9.52,5.34,11.19,7.77,11.03,16.06,14.61,34.53,16.91,53.78,4.62,38.67-5.83,72.3-16.53,109.45Z"/>
  </g>
</svg>