<?xml version="1.0" encoding="UTF-8"?>
<svg id="Layer_2" data-name="Layer 2" xmlns="http://www.w3.org/2000/svg" viewBox="0 0 398.13 74.59">
  <defs>
    <style>
      .cls-1 {
        fill: #4aaa83;
      }
    </style>
  </defs>
  <g id="Layer_1-2" data-name="Layer 1">
    <g>
      <path class="cls-1" d="M20.05,48.44h0s.2,0,.2,0h5.87c5.01-.05,8.22-4.21,8.22-8.52v-14.74h-6.17l-.05,14.14c0,1.6-.4,2.86-2.26,2.91h-5.71c-1.55,0-2.61-.5-3.31-1.4v-15.59h-6.22v21.76c0,3.61-.85,6.17-2.41,7.22-1.91,1.2-4.51.35-6.32-.6l-1.91,5.82c1.4.9,3.76,1.6,6.17,1.6,1.7,0,3.31-.4,4.71-1.1,3.21-1.7,5.72-5.41,5.92-11.63l-.3-.8c.77.43,2.17.9,3.56.94Z"/>
      <path class="cls-1" d="M23.16,52.11c-1.96,0-3.21,1.3-3.21,3.26s1.25,3.26,3.21,3.26,3.31-1.3,3.31-3.26-1.3-3.26-3.31-3.26Z"/>
      <path class="cls-1" d="M31.69,52.11c-1.96,0-3.26,1.3-3.26,3.26s1.3,3.26,3.26,3.26,3.31-1.3,3.31-3.26-1.3-3.26-3.31-3.26Z"/>
      <polygon class="cls-1" points="123.18 16.96 114.11 19.87 114.11 22.58 123.18 19.67 123.18 16.96"/>
      <path class="cls-1" d="M116.82,52.01c-1.96,0-3.21,1.3-3.21,3.26s1.25,3.26,3.21,3.26,3.31-1.3,3.31-3.26-1.3-3.26-3.31-3.26Z"/>
      <path class="cls-1" d="M153.92,27.44c.8,1.4,1.75,4.56,2.11,7.62.5,3.66-.05,7.17-3.11,7.17-1.91,0-3.51-1.35-3.51-3.66v-7.67h-6.22v8.22c0,1.8-1.35,3.16-3.01,3.16s-3.11-1.25-3.11-3.16v-10.73h-6.22v10.78c.05,1.91-1.15,3.06-2.96,3.06h-2.76c-1.7,0-2.71-.4-3.46-1.25v-12.58h-6.17l-.05,11.18c0,1.45-1.2,2.66-2.66,2.66h-63.32c-1.4-.05-2.26-1.1-2.26-2.66V13.55h-6.17v25.92c0,5.87,2.41,8.98,8.22,8.98h65.03c2.01,0,3.76-.85,5.01-2.16,1.45,1.6,3.51,2.16,5.87,2.16h3.11c4.06,0,5.77-3.11,6.12-4.51.75,3.01,3.71,4.51,6.22,4.51,3.01,0,4.91-1.4,5.72-3.06,1.55,2.11,4.01,3.06,6.52,3.06,6.02,0,8.52-4.26,9.07-9.18.6-4.21-.4-9.38-2.31-13.09l-5.72,1.25Z"/>
      <path class="cls-1" d="M192.87,35.62c2.01,0,3.31-1.3,3.31-3.26s-1.3-3.26-3.31-3.26-3.21,1.3-3.21,3.26,1.25,3.26,3.21,3.26Z"/>
      <path class="cls-1" d="M202,46.85c0,4.86-3.71,7.92-8.17,7.92-8.42,0-11.98-7.57-7.12-13.99l-5.06-2.81c-7.82,8.52-2.46,23.06,11.93,23.06,7.82,0,14.64-5.72,14.64-13.29v-16.75h-6.22v15.84Z"/>
      <rect class="cls-1" x="214.58" y="13.55" width="6.17" height="34.95"/>
      <path class="cls-1" d="M276.75,38.87l-.55-4.56c-.85-5.67-5.67-9.93-11.28-9.93-6.17,0-11.33,4.56-11.33,11.53h6.17c0-3.21,2.31-5.31,5.16-5.31,2.56,0,4.66,1.75,5.16,4.51l.45,3.46c.1.6.35,2.76,1.35,3.66h-23.46v-4.81c0-6.82-3.61-13.04-11.33-13.04-5.92,0-9.73,4.76-9.78,4.81l4.26,4.46c.1-.15,2.56-3.06,5.52-3.06,3.51,0,5.11,2.41,5.11,6.17v5.46h-15.19v6.22h52.44v-4.21c-2.06,0-2.46-3.66-2.71-5.36Z"/>
      <path class="cls-1" d="M264.62,52.26c-1.96,0-3.21,1.3-3.21,3.26s1.25,3.26,3.21,3.26,3.31-1.3,3.31-3.26-1.3-3.26-3.31-3.26Z"/>
      <path class="cls-1" d="M295.6,24.38c-6.22,0-11.18,5.06-11.18,11.28v1.4c0,6.67,4.01,11.33,10.43,11.63,1.55,0,4.21-.2,5.77-1.15v1.1c0,3.66-1.7,6.17-5.67,6.17-3.11,0-5.26-1.8-5.92-2.71l-4.11,4.06c1.4,2.01,4.86,4.86,10.28,4.86,6.82,0,11.63-5.77,11.63-12.89v-12.48c0-6.22-5.01-11.28-11.23-11.28ZM300.62,40.98c-.65.45-2.11,1.5-4.81,1.5-2.96-.1-5.21-2.26-5.21-5.01v-1.96c0-2.71,2.31-4.91,5.01-4.91s5.01,2.21,5.01,4.91v5.46Z"/>
    </g>
    <path class="cls-1" d="M376.31,18.73c2.19-1.55,4.93-1.26,6.65.66.7.78,1.2,1.62,1.62,2.61,1.94,4.63,1.64,9.83-.69,14.34,2.16.49,4.35.73,6.46.28,2.21-.48,3.58-2.18,3.48-4.43-.07-1.6-.36-3.13-.87-4.68-2.54-7.68-7.8-14.19-14.76-18.3-5.85-3.45-12.42-5.06-19.23-4.88-8.96.24-17.44,4.07-23.66,10.5-11.26,11.62-12.6,28.76-2.69,41.78,3.81,5,8.78,8.81,14.57,11.25,18.82,7.93,39.69-2.93,45.88-21.76.34-1.04,1.19-1.63,2.35-1.54.67.05,1.33.42,1.68.89.46.63.45,1.32.21,2.03-3.34,10.24-10.67,18.74-20.39,23.35-13.57,6.45-29.77,4.49-41.45-4.98-3.27-2.65-6.08-5.88-8.35-9.46-5.75-9.1-7.12-20.32-3.73-30.52,1.76-5.27,4.77-9.93,8.61-13.93,6.45-6.71,15.09-11,24.37-11.8,11.56-1,22.81,3.12,31.1,11.2,4.51,4.39,7.93,9.87,9.82,15.9.65,2.07.93,4.12.81,6.22-.26,3.62-2.64,6.36-6.18,7.2-3.4.81-7.02.51-10.4-.69-2.4,4.35-5.85,7.98-10.03,10.55-.98.6-1.91,1.03-3,1.26-1.72.26-3.41-.42-4.22-2.02l-4.64-9.15-9.35,13.74c-.87,1.28-2.4,1.84-3.82,1.64-1.38-.19-2.52-1.16-3.08-2.56l-5.74-14.38c-.28-.71-.27-1.46.11-2.08.51-.82,1.44-1.17,2.38-1.07s1.65.7,2.02,1.65l4.9,12.71,9.34-13.27c.78-1.11,2.13-1.63,3.37-1.58,1.27.06,2.56.7,3.19,1.94l4.93,9.67c4-1.89,7-5.27,9.38-8.83-4.41-2.09-6.81-6.72-5.96-11.52.56-3.17,2.37-6.07,5.02-7.95ZM380.02,23.55c-.16-.31-.5-.68-.75-.71-1.68-.22-4.1,3.2-3.76,6.4.23,2.19,1.56,4.29,3.7,5.36,1.65-3.46,2.62-7.53.81-11.04Z"/>
  </g>
</svg>