<?xml version="1.0" encoding="UTF-8"?>
<svg id="Layer_1" data-name="Layer 1" xmlns="http://www.w3.org/2000/svg" viewBox="0 0 1920 1080">
  <defs>
    <style>
      .cls-1 {
        fill: #3b8bba;
      }
    </style>
  </defs>
  <path class="cls-1" d="M342.69,769.88c-34.05-18.74-68.1-37.47-102.14-56.21-.02-39.11-.04-78.22-.07-117.32-9.07-4.6-18.14-9.2-27.21-13.79.01,48.81.03,97.63.04,146.44,43.12,24.42,86.24,48.83,129.35,73.25,20.68-12.06,41.37-24.12,62.05-36.19-9.07-5.1-18.14-10.2-27.21-15.31-11.6,6.38-23.2,12.75-34.81,19.13Z"/>
  <path class="cls-1" d="M150.05,547.17l90.85-52.72,45.75,25.53v24.54l25.86,13.93c-.14-18.05-.28-36.1-.42-54.15-38.03-21.09-76.05-42.19-114.08-63.28v30.85c5.07,2.89,10.13,5.77,15.2,8.66-29.67,16.91-59.35,33.83-89.02,50.74v146.55l61.68,35.81c.1-10.64.19-21.28.29-31.92-12.02-6.47-24.04-12.93-36.06-19.4-.01-38.37-.03-76.75-.04-115.12Z"/>
  <path class="cls-1" d="M535.01,664.26c-34.04,18.75-68.07,37.49-102.11,56.24-25.52-15.34-51.04-30.68-76.56-46.01v-15.24c14.14-7.44,28.28-14.88,42.43-22.32v-30.52c-18.69,10.22-37.39,20.45-56.08,30.67-18.71-10.22-37.43-20.43-56.14-30.65-.01,10.21-.03,20.43-.04,30.64,14.64,7.61,29.27,15.21,43.91,22.82v27.85l100.79,63c43.69-24.27,87.39-48.53,131.08-72.8,0-32.91-.01-65.82-.02-98.73-9.08,5.1-18.15,10.2-27.23,15.29,0,23.25-.02,46.5-.03,69.75Z"/>
  <path class="cls-1" d="M252.5,329.01c-43.05,23.88-86.11,47.75-129.16,71.63-.04,33.38-.07,66.76-.11,100.14,9-5.22,18-10.44,27.01-15.66.1-22.5.2-45,.31-67.5,34.02-19.32,68.04-38.65,102.06-57.97,34.37,19.41,68.74,38.83,103.12,58.24,8.84-5.72,17.69-11.43,26.53-17.15-43.25-23.91-86.5-47.83-129.74-71.74Z"/>
  <path class="cls-1" d="M472,449.71v-98.59c-43.13-24.45-86.27-48.91-129.4-73.36-20.4,11.48-40.8,22.95-61.2,34.43l25.45,16.82c11.89-6.79,23.78-13.57,35.67-20.36,34.66,19.27,69.32,38.54,103.97,57.82-.02,32.9-.04,65.79-.06,98.69-24.34,13.04-48.68,26.08-73.03,39.12-.03,18.17-.05,36.34-.08,54.51,8.49-5.13,16.98-10.27,25.48-15.4.02-7.9.04-15.81.06-23.71,30.05-16.49,60.11-32.99,90.16-49.48v-28.89c-5.68,2.8-11.35,5.61-17.03,8.41Z"/>
  <path class="cls-1" d="M499.31,366.36c-.04,10.23-.07,20.47-.11,30.7,12.52,6.82,25.04,13.64,37.55,20.46-.02,38.56-.04,77.12-.06,115.67-34.59,18.79-69.19,37.57-103.78,56.36.02,10.2.04,20.39.06,30.59,43.08-23.87,86.16-47.75,129.25-71.62.01-49.34.03-98.67.04-148.01-20.98-11.38-41.97-22.76-62.95-34.14Z"/>
  <path class="cls-1" d="M728.21,569.67h-30.67l-4.96-44.42h-50.96l-4.96,44.42h-30.44l11.95-108c4.28-38.78,17.59-53.44,48.93-53.44s44.87,14.66,49.15,53.44l11.95,108ZM644.78,497.3h44.65l-3.38-31.34c-2.25-22.55-6.99-29.76-18.94-29.76s-16.46,7.21-18.94,29.76l-3.38,31.34Z"/>
  <path class="cls-1" d="M861,569.67h-33.37l-30.67-59.75h-18.49v59.75h-30.89v-157.83h57.95c34.72,0,47.8,13.3,47.8,47.58,0,25.7-7.44,39.01-26.38,44.87l34.05,65.39ZM778.47,482.41h22.55c15.56,0,21.42-5.86,21.42-21.42s-5.86-21.65-21.42-21.65h-22.55v43.06Z"/>
  <path class="cls-1" d="M973.04,569.67h-95.6v-157.83h95.6v27.51h-64.71v34.72h57.95v27.73h-57.95v40.36h64.71v27.51Z"/>
  <path class="cls-1" d="M1090.28,569.67h-95.6v-157.83h95.6v27.51h-64.71v34.72h57.95v27.73h-57.95v40.36h64.71v27.51Z"/>
  <path class="cls-1" d="M1193.07,519.39v-107.55h29.09v157.83h-30.66l-50.28-107.1v107.1h-29.31v-157.83h30.89l50.28,107.55Z"/>
  <path class="cls-1" d="M1289.56,490.76c0-58.85,17.13-82.52,59.98-82.52,37.43,0,55.02,18.49,58.85,61.78h-30.67c-2.48-24.35-10.15-33.82-28.19-33.82-21.87,0-29.09,13.08-29.09,54.56s7.21,54.57,29.09,54.57c18.04,0,25.7-9.47,28.19-33.82h30.67c-3.83,43.29-21.42,61.78-58.85,61.78-42.84,0-59.98-23.67-59.98-82.52Z"/>
  <path class="cls-1" d="M1505.55,411.84h30.89v100.56c0,42.39-16.91,60.88-55.01,60.88s-55.02-18.49-55.02-60.88v-100.56h30.89v102.14c0,21.87,7.21,31.34,24.13,31.34s24.12-9.47,24.12-31.34v-102.14Z"/>
  <path class="cls-1" d="M1670.81,524.8c0,30.89-15.11,44.87-48.48,44.87h-59.53v-157.83h57.5c34.72,0,47.58,10.6,47.58,39.91,0,19.16-9.25,32.24-24.8,35.4,17.36,3.16,27.73,17.14,27.73,37.65ZM1593.7,439.35v36.75h21.87c14.89,0,21.42-5.41,21.42-18.26s-6.31-18.49-21.42-18.49h-21.87ZM1593.7,542.17h23.22c16.23,0,23-5.86,23-20.52s-6.76-20.07-23-20.07h-23.22v40.59Z"/>
  <path class="cls-1" d="M1683.19,522.78h30.89c.68,16.23,8.8,24.35,25.03,24.35,14.21,0,22.32-6.99,22.32-19.39,0-9.47-5.63-16.23-18.26-21.87l-16.91-7.44c-29.99-13.53-40.13-25.93-40.13-48.7,0-24.58,20.52-41.49,50.96-41.49,33.37,0,52.31,16.91,52.76,47.13h-30.89c-.67-13.98-7.89-20.97-21.87-20.97-12.63,0-20.07,6.09-20.07,16.91,0,8.34,5.18,13.53,20.74,20.52l16.23,7.44c27.96,12.85,38.33,26.16,38.33,50.06,0,26.83-20.97,43.97-53.43,43.97-35.4,0-55.47-18.26-55.69-50.5Z"/>
  <g>
    <path class="cls-1" d="M606.22,644.37c0-22.81,6.64-31.99,23.25-31.99,14.51,0,21.33,7.17,22.81,23.95h-11.89c-.96-9.44-3.93-13.11-10.93-13.11-8.48,0-11.28,5.07-11.28,21.15s2.8,21.15,11.28,21.15c6.99,0,9.96-3.67,10.93-13.11h11.89c-1.49,16.78-8.3,23.95-22.81,23.95-16.61,0-23.25-9.18-23.25-31.99Z"/>
    <path class="cls-1" d="M705.43,674.96h-12.94l-11.89-23.16h-7.17v23.16h-11.97v-61.18h22.46c13.46,0,18.53,5.16,18.53,18.44,0,9.96-2.88,15.12-10.23,17.39l13.2,25.35ZM673.44,641.13h8.74c6.03,0,8.3-2.27,8.3-8.3s-2.27-8.39-8.3-8.39h-8.74v16.7Z"/>
    <path class="cls-1" d="M750.28,674.96h-37.06v-61.18h37.06v10.66h-25.09v13.46h22.46v10.75h-22.46v15.65h25.09v10.66Z"/>
    <path class="cls-1" d="M803.95,674.96h-11.89l-1.92-17.22h-19.75l-1.92,17.22h-11.8l4.63-41.87c1.66-15.03,6.82-20.72,18.97-20.72s17.39,5.68,19.05,20.72l4.63,41.87ZM771.61,646.9h17.31l-1.31-12.15c-.87-8.74-2.71-11.54-7.34-11.54s-6.38,2.8-7.34,11.54l-1.31,12.15Z"/>
    <path class="cls-1" d="M832.18,674.96h-11.89v-50.35h-15.12v-10.84h42.04v10.84h-15.03v50.35Z"/>
    <path class="cls-1" d="M867.24,674.96h-11.97v-61.18h11.97v61.18Z"/>
    <path class="cls-1" d="M880.78,655.64l-4.63-41.87h11.8l4.46,40.21c.96,8.74,2.8,11.54,7.34,11.54s6.47-2.8,7.34-11.54l4.46-40.21h11.89l-4.63,41.87c-1.66,15.03-6.91,20.72-19.05,20.72s-17.31-5.68-18.97-20.72Z"/>
    <path class="cls-1" d="M969.42,674.96h-37.06v-61.18h37.06v10.66h-25.09v13.46h22.46v10.75h-22.46v15.65h25.09v10.66Z"/>
    <path class="cls-1" d="M994.6,656.78h11.97c.26,6.29,3.41,9.44,9.7,9.44,5.51,0,8.65-2.71,8.65-7.52,0-3.67-2.18-6.29-7.08-8.48l-6.56-2.88c-11.62-5.24-15.56-10.05-15.56-18.88,0-9.53,7.95-16.08,19.75-16.08,12.94,0,20.28,6.56,20.45,18.27h-11.97c-.26-5.42-3.06-8.13-8.48-8.13-4.89,0-7.78,2.36-7.78,6.56,0,3.23,2.01,5.24,8.04,7.95l6.29,2.88c10.84,4.98,14.86,10.14,14.86,19.4,0,10.4-8.13,17.04-20.72,17.04-13.72,0-21.5-7.08-21.59-19.58Z"/>
    <path class="cls-1" d="M1067.93,674.96h-11.89v-50.35h-15.12v-10.84h42.04v10.84h-15.03v50.35Z"/>
    <path class="cls-1" d="M1120.29,613.77h11.97v38.98c0,16.43-6.56,23.6-21.33,23.6s-21.33-7.17-21.33-23.6v-38.98h11.98v39.59c0,8.48,2.8,12.15,9.35,12.15s9.35-3.67,9.35-12.15v-39.59Z"/>
    <path class="cls-1" d="M1166.1,613.77c15.99,0,21.68,7.95,21.68,30.59s-5.68,30.59-21.68,30.59h-22.2v-61.18h22.2ZM1155.87,664.12h9.61c8.13,0,10.31-4.02,10.31-19.75s-2.19-19.75-10.31-19.75h-9.61v39.51Z"/>
    <path class="cls-1" d="M1209.8,674.96h-11.97v-61.18h11.97v61.18Z"/>
    <path class="cls-1" d="M1219.77,644.37c0-22.81,6.64-31.99,23.25-31.99s23.16,9.18,23.16,31.99-6.56,31.99-23.16,31.99-23.25-9.18-23.25-31.99ZM1254.21,644.37c0-16.08-2.8-21.15-11.19-21.15s-11.28,5.07-11.28,21.15,2.8,21.15,11.28,21.15,11.19-5.07,11.19-21.15Z"/>
    <path class="cls-1" d="M1301.15,674.96h-11.28l15.47-61.18h11.28l-15.47,61.18Z"/>
    <path class="cls-1" d="M1354.65,674.96h-11.97v-61.18h11.97v61.18Z"/>
    <path class="cls-1" d="M1388.91,674.96h-11.89v-50.35h-15.12v-10.84h42.04v10.84h-15.03v50.35Z"/>
    <path class="cls-1" d="M1426.76,656.78h11.97c.26,6.29,3.41,9.44,9.7,9.44,5.51,0,8.65-2.71,8.65-7.52,0-3.67-2.18-6.29-7.08-8.48l-6.56-2.88c-11.62-5.24-15.56-10.05-15.56-18.88,0-9.53,7.95-16.08,19.75-16.08,12.94,0,20.28,6.56,20.45,18.27h-11.98c-.26-5.42-3.06-8.13-8.48-8.13-4.89,0-7.78,2.36-7.78,6.56,0,3.23,2.01,5.24,8.04,7.95l6.29,2.88c10.84,4.98,14.86,10.14,14.86,19.4,0,10.4-8.13,17.04-20.72,17.04-13.72,0-21.5-7.08-21.59-19.58Z"/>
    <path class="cls-1" d="M1515.22,674.96h-37.06v-61.18h37.06v10.66h-25.09v13.46h22.46v10.75h-22.46v15.65h25.09v10.66Z"/>
    <path class="cls-1" d="M1568.98,674.96h-12.94l-11.89-23.16h-7.17v23.16h-11.97v-61.18h22.46c13.46,0,18.53,5.16,18.53,18.44,0,9.96-2.88,15.12-10.23,17.39l13.2,25.35ZM1536.99,641.13h8.74c6.03,0,8.3-2.27,8.3-8.3s-2.27-8.39-8.3-8.39h-8.74v16.7Z"/>
    <path class="cls-1" d="M1577.99,655.64l-4.63-41.87h11.8l4.46,40.21c.96,8.74,2.8,11.54,7.34,11.54s6.47-2.8,7.34-11.54l4.46-40.21h11.89l-4.63,41.87c-1.66,15.03-6.91,20.72-19.05,20.72s-17.31-5.68-18.97-20.72Z"/>
    <path class="cls-1" d="M1641.54,674.96h-11.97v-61.18h11.97v61.18Z"/>
    <path class="cls-1" d="M1651.5,644.37c0-22.81,6.64-31.99,23.25-31.99,14.51,0,21.33,7.17,22.81,23.95h-11.89c-.96-9.44-3.93-13.11-10.93-13.11-8.48,0-11.28,5.07-11.28,21.15s2.8,21.15,11.28,21.15c6.99,0,9.96-3.67,10.93-13.11h11.89c-1.49,16.78-8.3,23.95-22.81,23.95-16.61,0-23.25-9.18-23.25-31.99Z"/>
    <path class="cls-1" d="M1743.81,674.96h-37.06v-61.18h37.06v10.66h-25.09v13.46h22.46v10.75h-22.46v15.65h25.09v10.66Z"/>
    <path class="cls-1" d="M1750.1,656.78h11.97c.26,6.29,3.41,9.44,9.7,9.44,5.51,0,8.65-2.71,8.65-7.52,0-3.67-2.18-6.29-7.08-8.48l-6.56-2.88c-11.62-5.24-15.56-10.05-15.56-18.88,0-9.53,7.95-16.08,19.75-16.08,12.94,0,20.28,6.56,20.45,18.27h-11.97c-.26-5.42-3.06-8.13-8.48-8.13-4.89,0-7.78,2.36-7.78,6.56,0,3.23,2.01,5.24,8.04,7.95l6.29,2.88c10.84,4.98,14.86,10.14,14.86,19.4,0,10.4-8.13,17.04-20.72,17.04-13.72,0-21.5-7.08-21.59-19.58Z"/>
  </g>
</svg>