<?xml version="1.0" encoding="UTF-8"?>
<svg id="Layer_2" data-name="Layer 2" xmlns="http://www.w3.org/2000/svg" viewBox="0 0 117.33 117.33">
  <defs>
    <style>
      .cls-1 {
        fill: #4aaa83;
      }
    </style>
  </defs>
  <g id="Layer_1-2" data-name="Layer 1">
    <g>
      <path class="cls-1" d="M117.3,57C116.42,25.42,90.46,0,58.66,0S.95,25.38.03,56.91v.07c-.02.56-.03,1.12-.03,1.68,0,1.72.07,3.41.22,5.09.03.31.05.62.09.93,3.02,29.53,28.03,52.64,58.35,52.64s55.83-23.57,58.44-53.49c.16-1.7.23-3.43.23-5.17,0-.55-.01-1.12-.03-1.67ZM111.33,63.88c-2.64,26.74-25.24,47.7-52.67,47.7S9.13,91.08,6.11,64.76c-.04-.31-.07-.62-.1-.93-.17-1.69-.25-3.42-.25-5.16,0-.56.01-1.13.03-1.69v-.06C6.72,28.55,30.07,5.75,58.66,5.75s52.02,22.85,52.89,51.28c.02.54.03,1.09.03,1.64,0,1.76-.08,3.49-.25,5.21Z"/>
      <path class="cls-1" d="M95.81,29.82l-18.98,59.51c-.49,1.57-1.94,2.66-3.58,2.72-.05.01-.1.01-.16.01-1.59,0-3.03-.97-3.63-2.45l-13.13-32.41c-.38-.91-1.65-.94-2.07-.05l-10.67,22.88c-.37.78-.94,1.5-1.73,1.89-1.75.91-3.79.43-4.94-1l-12.16-15.17c-.5-.63-1.27-.99-2.07-.99H.98c-.23,0-.45-.02-.67-.06-.04-.31-.06-.62-.09-.93-.15-1.68-.22-3.38-.22-5.09,0-.56.01-1.12.03-1.68.23-.05.46-.07.7-.07h25.12c1.2,0,2.34.54,3.09,1.49l9.11,11.36c.49.62,1.45.5,1.79-.21l12.23-26.21c.66-1.41,2.1-2.34,3.66-2.27,1.56.04,2.95,1,3.54,2.46l12.26,30.25c.39.95,1.76.9,2.07-.08l14.74-46.26c.66-2.06,2.87-3.2,4.94-2.54,2.06.66,3.2,2.87,2.54,4.93Z"/>
    </g>
  </g>
</svg>