<?xml version="1.0" encoding="UTF-8"?>
<svg id="Layer_2" data-name="Layer 2" xmlns="http://www.w3.org/2000/svg" viewBox="0 0 113.18 110.26">
  <defs>
    <style>
      .cls-1 {
        fill: #4aaa83;
      }
    </style>
  </defs>
  <g id="Layer_1-2" data-name="Layer 1">
    <path class="cls-1" d="M80.93,27.69c3.24-2.29,7.28-1.86,9.84.98,1.04,1.15,1.78,2.4,2.39,3.86,2.86,6.85,2.43,14.54-1.02,21.19,3.19.72,6.43,1.08,9.54.41,3.26-.7,5.29-3.23,5.15-6.55-.1-2.37-.53-4.63-1.29-6.92-3.75-11.35-11.53-20.98-21.82-27.06-8.65-5.11-18.37-7.48-28.43-7.22-13.24.35-25.78,6.02-34.97,15.52C3.67,39.1,1.7,64.43,16.35,83.67c5.63,7.39,12.98,13.03,21.54,16.63,27.81,11.73,58.67-4.33,67.82-32.17.51-1.54,1.75-2.41,3.48-2.27.99.08,1.97.61,2.48,1.31.68.93.66,1.95.31,3.01-4.94,15.14-15.78,27.7-30.14,34.52-20.07,9.54-44.01,6.64-61.28-7.36-4.83-3.91-8.99-8.69-12.34-13.98C-.28,69.92-2.31,53.33,2.71,38.24c2.59-7.79,7.05-14.68,12.73-20.59C24.96,7.73,37.73,1.4,51.46.22c17.08-1.47,33.72,4.62,45.97,16.56,6.66,6.5,11.72,14.59,14.52,23.5.96,3.05,1.37,6.09,1.2,9.2-.39,5.35-3.91,9.39-9.14,10.65-5.02,1.2-10.37.75-15.38-1.02-3.54,6.43-8.65,11.79-14.82,15.6-1.44.89-2.82,1.52-4.44,1.86-2.54.39-5.04-.62-6.24-2.99l-6.86-13.53-13.82,20.31c-1.29,1.89-3.54,2.72-5.65,2.43s-3.72-1.72-4.55-3.79l-8.48-21.26c-.42-1.04-.4-2.15.17-3.07.75-1.21,2.13-1.74,3.52-1.58s2.44,1.04,2.98,2.45l7.25,18.78,13.8-19.62c1.16-1.64,3.15-2.41,4.98-2.33,1.88.08,3.78,1.03,4.71,2.86l7.28,14.29c5.91-2.8,10.35-7.79,13.86-13.05-6.53-3.09-10.07-9.93-8.81-17.03.83-4.68,3.51-8.98,7.43-11.75ZM86.41,34.81c-.23-.45-.73-1-1.11-1.05-2.49-.33-6.05,4.74-5.55,9.46.34,3.24,2.31,6.34,5.47,7.92,2.44-5.12,3.88-11.14,1.2-16.32Z"/>
  </g>
</svg>