<?xml version="1.0" encoding="UTF-8"?>
<svg id="Layer_2" data-name="Layer 2" xmlns="http://www.w3.org/2000/svg" viewBox="0 0 533.94 178.05">
  <defs>
    <style>
      .cls-1, .cls-2 {
        fill: #969696;
      }

      .cls-1, .cls-3 {
        stroke: #717171;
        stroke-miterlimit: 10;
        stroke-width: 1.1px;
      }

      .cls-4 {
        fill: #9b9a9a;
      }

      .cls-2 {
        font-family: IBMPlexSansArabic-SemiBold, 'IBM Plex Sans Arabic';
        font-size: 17.84px;
        font-weight: 600;
      }

      .cls-3 {
        fill: none;
      }
    </style>
  </defs>
  <g id="Layer_1-2" data-name="Layer 1">
    <line class="cls-3" x1="533.77" y1="29.82" x2="0" y2="29.82"/>
    <line class="cls-3" x1="533.94" y1=".55" x2="0" y2=".55"/>
    <line class="cls-3" x1="533.41" y1="146.74" x2="0" y2="146.74"/>
    <line class="cls-1" x1="533.94" y1="175.84" x2="0" y2="175.83"/>
    <line class="cls-3" x1="29.88" y1=".6" x2="29.88" y2="176.22"/>
    <line class="cls-1" x1=".55" y1=".52" x2=".55" y2="176.36"/>
    <line class="cls-3" x1="504.06" y1=".08" x2="504.06" y2="175.66"/>
    <line class="cls-3" x1="533.39" y1=".02" x2="533.39" y2="175.69"/>
    <text class="cls-2" transform="translate(9.63 22.14)"><tspan x="0" y="0">X</tspan></text>
    <text class="cls-2" transform="translate(10.34 167.56)"><tspan x="0" y="0">X</tspan></text>
    <text class="cls-2" transform="translate(513.41 166.9)"><tspan x="0" y="0">X</tspan></text>
    <text class="cls-2" transform="translate(513.94 20.76)"><tspan x="0" y="0">X</tspan></text>
    <g>
      <g>
        <g>
          <polygon class="cls-4" points="204.78 30.57 197.58 56.96 190.38 30.57 182.76 30.62 175.56 56.96 168.36 30.57 160.73 30.57 171.98 68.96 179.13 68.96 186.57 43.05 194.01 68.96 201.15 68.96 212.41 30.57 204.78 30.57"/>
          <path class="cls-4" d="M234.14,41.5c-2.12-1.42-4.68-2.13-7.71-2.13-2.84,0-5.36.64-7.55,1.93-2.19,1.29-3.9,3.1-5.15,5.43-1.24,2.33-1.87,5.07-1.87,8.21,0,2.88.64,5.44,1.91,7.67,1.27,2.23,3.03,3.98,5.28,5.25,2.25,1.27,4.85,1.91,7.8,1.91,2.77,0,5.33-.73,7.67-2.19,2.34-1.46,4.05-3.5,5.13-6.13l-7.25-2.08c-.53,1.17-1.31,2.07-2.32,2.69-1.01.62-2.23.93-3.65.93-2.26,0-3.97-.73-5.13-2.2-.85-1.07-1.39-2.48-1.62-4.2h20.22c.3-3.48-.05-6.51-1.07-9.09-1.01-2.58-2.58-4.58-4.69-6ZM226.75,45.66c2.12,0,3.64.64,4.57,1.93.61.85,1.02,2.06,1.23,3.61h-12.68c.28-1.33.75-2.43,1.42-3.29,1.16-1.5,2.98-2.25,5.45-2.25Z"/>
          <rect class="cls-4" x="247.23" y="29.77" width="7.25" height="6.4"/>
          <path class="cls-4" d="M247.23,70.67c0,1.39-.31,2.45-.92,3.2s-1.75,1.12-3.4,1.12h-1.28v6.77h4.91c2.44,0,4.37-.69,5.8-2.07,1.43-1.38,2.15-3.21,2.15-5.51v-34.02h-7.25v30.5Z"/>
          <path class="cls-4" d="M280.51,41.11c-1.79-1.15-3.96-1.74-6.51-1.74-2.76,0-5.16.66-7.2,1.97-2.04,1.32-3.63,3.12-4.76,5.4-1.13,2.28-1.69,4.89-1.69,7.83s.56,5.47,1.67,7.76c1.11,2.29,2.66,4.11,4.65,5.44,1.99,1.33,4.31,2,6.96,2,2.86,0,5.25-.67,7.17-2,.22-.15.41-.33.61-.49v1.69h6.4V30.57h-7.31v10.54ZM280.77,59.15c-.43,1.32-1.12,2.34-2.09,3.07-.97.73-2.26,1.09-3.88,1.09s-2.84-.39-3.84-1.17c-1-.78-1.73-1.84-2.21-3.16s-.72-2.8-.72-4.41.25-3.06.75-4.39c.5-1.32,1.27-2.38,2.31-3.17s2.37-1.19,3.99-1.19c1.51,0,2.73.36,3.67,1.09.93.73,1.61,1.75,2.04,3.07.43,1.32.64,2.84.64,4.59s-.21,3.27-.64,4.59Z"/>
          <path class="cls-4" d="M315.94,41.5c-2.12-1.42-4.68-2.13-7.71-2.13-2.84,0-5.36.64-7.55,1.93-2.19,1.29-3.9,3.1-5.15,5.43-1.24,2.33-1.87,5.07-1.87,8.21,0,2.88.64,5.44,1.91,7.67,1.27,2.23,3.03,3.98,5.28,5.25,2.25,1.27,4.85,1.91,7.8,1.91,2.77,0,5.33-.73,7.67-2.19,2.34-1.46,4.05-3.5,5.13-6.13l-7.25-2.08c-.53,1.17-1.31,2.07-2.32,2.69-1.01.62-2.23.93-3.65.93-2.26,0-3.97-.73-5.13-2.2-.85-1.07-1.39-2.48-1.62-4.2h20.22c.3-3.48-.05-6.51-1.07-9.09-1.01-2.58-2.58-4.58-4.69-6ZM308.55,45.66c2.12,0,3.64.64,4.57,1.93.61.85,1.02,2.06,1.23,3.61h-12.68c.29-1.33.75-2.43,1.42-3.29,1.16-1.5,2.98-2.25,5.45-2.25Z"/>
          <path class="cls-4" d="M353.16,47.03c-.34-1.27-.9-2.49-1.69-3.67-.79-1.17-1.9-2.14-3.32-2.91-1.42-.76-3.26-1.15-5.52-1.15-2.83,0-5.17.61-7.03,1.84-.88.58-1.64,1.25-2.31,2v-2.98h-6.45v28.8h7.36v-14.61c0-1.79.2-3.24.6-4.32.4-1.08.91-1.91,1.53-2.47.62-.56,1.29-.94,2-1.13.71-.2,1.38-.29,2-.29,1.55,0,2.74.35,3.59,1.04.84.69,1.45,1.56,1.83,2.59.37,1.03.6,2.06.67,3.08.07,1.02.11,1.86.11,2.52v13.6h7.36v-16.16c0-.48-.04-1.24-.11-2.29-.07-1.05-.28-2.21-.61-3.48Z"/>
          <path class="cls-4" d="M397.57,49.7c-1.11-.77-2.27-1.38-3.48-1.81-1.21-.44-2.31-.79-3.31-1.05l-6.67-1.81c-.82-.21-1.62-.48-2.4-.8-.78-.32-1.43-.74-1.95-1.27-.52-.52-.77-1.2-.77-2.04,0-.91.32-1.69.95-2.35.63-.66,1.45-1.16,2.45-1.51,1-.35,2.08-.5,3.21-.47,1.16.04,2.26.28,3.32.72,1.06.44,1.97,1.09,2.73,1.95.76.85,1.29,1.9,1.57,3.15l7.84-1.33c-.62-2.4-1.64-4.43-3.04-6.09-1.4-1.66-3.15-2.93-5.23-3.8-2.08-.87-4.44-1.32-7.09-1.36-2.63-.02-5.03.39-7.2,1.23-2.17.84-3.9,2.11-5.2,3.81-1.3,1.71-1.95,3.85-1.95,6.43,0,1.83.31,3.35.92,4.55.61,1.2,1.38,2.16,2.31,2.89.92.73,1.88,1.29,2.87,1.68s1.85.69,2.6.91l9.97,2.93c.75.23,1.36.49,1.85.77.49.28.87.59,1.13.91s.46.66.57,1.03c.12.36.17.74.17,1.13,0,1.07-.36,1.96-1.08,2.69-.72.73-1.64,1.28-2.76,1.65-1.12.37-2.28.56-3.47.56-2.13,0-4.04-.6-5.71-1.79-1.67-1.19-2.77-2.89-3.31-5.09l-7.57,1.12c.39,2.6,1.32,4.83,2.79,6.71,1.47,1.88,3.34,3.32,5.63,4.32,2.28,1,4.85,1.51,7.69,1.51,1.96,0,3.85-.25,5.69-.75,1.84-.5,3.49-1.25,4.95-2.25,1.46-1,2.62-2.28,3.48-3.81.86-1.54,1.29-3.34,1.29-5.4,0-1.94-.36-3.54-1.08-4.8-.72-1.26-1.64-2.28-2.75-3.05Z"/>
          <path class="cls-4" d="M428.22,41.34c-2.04-1.32-4.44-1.97-7.2-1.97s-5.04.67-6.91,2c-.18.13-.34.28-.51.42v-1.62h-6.4v41.59h7.31v-13.81c1.87,1.2,4.16,1.82,6.88,1.82s4.97-.67,6.96-2c1.99-1.33,3.54-3.15,4.65-5.44,1.11-2.29,1.67-4.88,1.67-7.76s-.56-5.54-1.69-7.83c-1.13-2.28-2.72-4.08-4.76-5.4ZM426.27,58.98c-.48,1.32-1.22,2.38-2.21,3.16-1,.78-2.28,1.17-3.84,1.17s-2.91-.36-3.88-1.09c-.97-.73-1.67-1.75-2.09-3.07-.43-1.32-.64-2.84-.64-4.59s.21-3.27.64-4.59c.43-1.32,1.11-2.34,2.04-3.07.93-.73,2.16-1.09,3.67-1.09,1.62,0,2.95.4,3.99,1.19s1.81,1.85,2.31,3.17c.5,1.32.75,2.79.75,4.39s-.24,3.09-.72,4.41Z"/>
          <rect class="cls-4" x="441.07" y="29.77" width="7.25" height="6.4"/>
          <rect class="cls-4" x="441.07" y="40.17" width="7.25" height="28.8"/>
          <path class="cls-4" d="M470.61,40.1c-.87.06-1.72.21-2.53.45-.82.24-1.57.57-2.27,1-.91.53-1.67,1.21-2.29,2.03-.3.39-.56.8-.8,1.23v-4.64h-6.4v28.8h7.31v-14.72c0-1.1.15-2.09.45-2.97.3-.88.75-1.64,1.33-2.29.59-.65,1.31-1.17,2.16-1.56.85-.41,1.81-.65,2.87-.73,1.06-.08,1.99,0,2.79.25v-6.77c-.87-.11-1.74-.13-2.61-.07Z"/>
          <path class="cls-4" d="M500.69,56.59h3.49c.3-3.48-.05-6.51-1.07-9.09-1.01-2.58-2.58-4.58-4.69-6-2.12-1.42-4.68-2.13-7.71-2.13-2.84,0-5.36.64-7.55,1.93-2.19,1.29-3.9,3.1-5.15,5.43-1.24,2.33-1.87,5.07-1.87,8.21,0,2.88.64,5.44,1.91,7.67,1.27,2.23,3.03,3.98,5.28,5.25,2.25,1.27,4.85,1.91,7.8,1.91,2.77,0,5.33-.73,7.67-2.19,2.34-1.46,4.05-3.5,5.13-6.13l-7.25-2.08c-.53,1.17-1.31,2.07-2.32,2.69-1.01.62-2.23.93-3.65.93-2.26,0-3.97-.73-5.13-2.2-.85-1.07-1.39-2.48-1.62-4.2h16.72ZM491.04,45.66c2.12,0,3.64.64,4.57,1.93.61.85,1.02,2.06,1.23,3.61h-12.68c.28-1.33.75-2.43,1.42-3.29,1.16-1.5,2.98-2.25,5.45-2.25Z"/>
        </g>
        <g>
          <path class="cls-4" d="M183.2,132.74h0s.23,0,.23,0h6.57c5.61-.06,9.21-4.72,9.21-9.54v-16.5h-6.9l-.06,15.83c0,1.8-.45,3.2-2.53,3.26h-6.4c-1.74,0-2.92-.56-3.7-1.57v-17.46h-6.96v24.36c0,4.04-.95,6.9-2.69,8.08-2.13,1.35-5.05.39-7.07-.67l-2.13,6.51c1.57,1.01,4.21,1.8,6.9,1.8,1.91,0,3.7-.45,5.28-1.24,3.59-1.91,6.4-6.06,6.62-13.02l-.34-.9c.86.48,2.43,1.01,3.98,1.06Z"/>
          <path class="cls-4" d="M186.68,136.84c-2.19,0-3.59,1.46-3.59,3.65s1.4,3.65,3.59,3.65,3.7-1.46,3.7-3.65-1.46-3.65-3.7-3.65Z"/>
          <path class="cls-4" d="M196.23,136.84c-2.19,0-3.65,1.46-3.65,3.65s1.46,3.65,3.65,3.65,3.7-1.46,3.7-3.65-1.46-3.65-3.7-3.65Z"/>
          <polygon class="cls-4" points="298.66 97.49 288.5 100.75 288.5 103.78 298.66 100.53 298.66 97.49"/>
          <path class="cls-4" d="M291.54,136.73c-2.19,0-3.59,1.46-3.59,3.65s1.4,3.65,3.59,3.65,3.7-1.46,3.7-3.65-1.46-3.65-3.7-3.65Z"/>
          <path class="cls-4" d="M333.07,109.23c.9,1.57,1.96,5.11,2.36,8.53.56,4.1-.06,8.03-3.48,8.03-2.13,0-3.93-1.52-3.93-4.1v-8.59h-6.96v9.21c0,2.02-1.52,3.54-3.37,3.54s-3.48-1.4-3.48-3.54v-12.01h-6.96v12.07c.06,2.13-1.29,3.42-3.31,3.42h-3.09c-1.91,0-3.03-.45-3.87-1.4v-14.09h-6.9l-.06,12.52c0,1.63-1.35,2.98-2.97,2.98h-70.89c-1.57-.06-2.53-1.24-2.53-2.98v-29.13h-6.9v29.02c0,6.57,2.69,10.05,9.21,10.05h72.8c2.25,0,4.21-.95,5.61-2.41,1.63,1.8,3.93,2.41,6.57,2.41h3.48c4.55,0,6.46-3.48,6.85-5.05.84,3.37,4.15,5.05,6.96,5.05,3.37,0,5.5-1.57,6.4-3.42,1.74,2.36,4.49,3.42,7.3,3.42,6.74,0,9.54-4.77,10.16-10.27.67-4.71-.45-10.5-2.58-14.65l-6.4,1.4Z"/>
          <path class="cls-4" d="M376.69,118.38c2.25,0,3.7-1.46,3.7-3.65s-1.46-3.65-3.7-3.65-3.59,1.46-3.59,3.65,1.4,3.65,3.59,3.65Z"/>
          <path class="cls-4" d="M386.9,130.95c0,5.44-4.15,8.87-9.15,8.87-9.43,0-13.42-8.48-7.97-15.66l-5.67-3.14c-8.76,9.54-2.75,25.82,13.36,25.82,8.76,0,16.39-6.4,16.39-14.87v-18.75h-6.96v17.74Z"/>
          <rect class="cls-4" x="400.99" y="93.68" width="6.9" height="39.12"/>
          <path class="cls-4" d="M470.59,122.02l-.62-5.11c-.95-6.34-6.34-11.11-12.63-11.11-6.9,0-12.69,5.11-12.69,12.91h6.9c0-3.59,2.58-5.95,5.78-5.95,2.86,0,5.22,1.96,5.78,5.05l.51,3.87c.11.67.39,3.09,1.52,4.1h-26.27v-5.39c0-7.63-4.04-14.59-12.69-14.59-6.62,0-10.89,5.33-10.95,5.39l4.77,5c.11-.17,2.86-3.42,6.17-3.42,3.93,0,5.73,2.69,5.73,6.9v6.12h-17.01v6.96h58.71v-4.72c-2.3,0-2.75-4.1-3.03-6.01Z"/>
          <path class="cls-4" d="M457.01,137.01c-2.19,0-3.59,1.46-3.59,3.65s1.4,3.65,3.59,3.65,3.7-1.46,3.7-3.65-1.46-3.65-3.7-3.65Z"/>
          <path class="cls-4" d="M491.7,105.8c-6.96,0-12.52,5.67-12.52,12.63v1.57c0,7.47,4.49,12.69,11.68,13.02,1.74,0,4.72-.22,6.46-1.29v1.24c0,4.1-1.91,6.9-6.34,6.9-3.48,0-5.89-2.02-6.62-3.03l-4.6,4.55c1.57,2.25,5.44,5.44,11.51,5.44,7.63,0,13.02-6.46,13.02-14.43v-13.98c0-6.96-5.61-12.63-12.57-12.63ZM497.31,124.38c-.73.51-2.36,1.68-5.39,1.68-3.31-.11-5.84-2.53-5.84-5.61v-2.19c0-3.03,2.58-5.5,5.61-5.5s5.61,2.47,5.61,5.5v6.12Z"/>
        </g>
      </g>
      <path class="cls-4" d="M115.32,59.28c3.43-2.43,7.7-1.97,10.4,1.03,1.1,1.22,1.88,2.54,2.53,4.09,3.03,7.24,2.57,15.38-1.08,22.42,3.37.76,6.8,1.14,10.09.43,3.45-.74,5.59-3.41,5.45-6.92-.1-2.5-.56-4.89-1.36-7.32-3.97-12.01-12.2-22.19-23.08-28.62-9.14-5.4-19.43-7.91-30.07-7.63-14,.37-27.26,6.37-36.99,16.41-17.61,18.18-19.7,44.97-4.2,65.33,5.95,7.82,13.73,13.78,22.78,17.59,29.42,12.41,62.06-4.58,71.74-34.03.54-1.63,1.85-2.55,3.68-2.4,1.05.08,2.08.65,2.62,1.39.72.99.7,2.06.33,3.18-5.23,16.02-16.69,29.3-31.88,36.52-21.22,10.09-46.55,7.02-64.82-7.78-5.11-4.14-9.51-9.19-13.05-14.79-8.99-14.22-11.14-31.77-5.83-47.73,2.74-8.24,7.46-15.53,13.46-21.78,10.08-10.5,23.59-17.19,38.1-18.45,18.07-1.56,35.67,4.88,48.62,17.52,7.05,6.87,12.4,15.43,15.36,24.86,1.01,3.23,1.45,6.44,1.27,9.73-.41,5.66-4.14,9.94-9.66,11.26-5.31,1.27-10.97.79-16.27-1.08-3.75,6.8-9.15,12.47-15.68,16.5-1.53.94-2.98,1.61-4.69,1.97-2.69.41-5.33-.66-6.6-3.16l-7.26-14.31-14.62,21.48c-1.36,2-3.75,2.88-5.98,2.57-2.16-.3-3.94-1.82-4.81-4.01l-8.97-22.48c-.44-1.1-.43-2.28.18-3.25.8-1.28,2.25-1.84,3.72-1.67s2.58,1.1,3.15,2.59l7.67,19.87,14.6-20.75c1.22-1.74,3.33-2.55,5.26-2.46,1.99.09,4,1.09,4.99,3.03l7.7,15.12c6.25-2.96,10.95-8.24,14.67-13.8-6.9-3.27-10.65-10.51-9.32-18.02.88-4.95,3.71-9.5,7.86-12.43ZM121.11,66.81c-.25-.48-.78-1.06-1.18-1.11-2.63-.35-6.4,5.01-5.87,10,.36,3.43,2.45,6.7,5.78,8.38,2.58-5.41,4.1-11.78,1.27-17.27Z"/>
    </g>
  </g>
</svg>