<?xml version="1.0" encoding="UTF-8"?>
<svg id="Layer_2" data-name="Layer 2" xmlns="http://www.w3.org/2000/svg" viewBox="0 0 556.44 178.05">
  <defs>
    <style>
      .cls-1 {
        font-family: IBMPlexSansArabic-SemiBold, 'IBM Plex Sans Arabic';
        font-size: 17.84px;
        font-weight: 600;
      }

      .cls-1, .cls-2 {
        fill: #636464;
      }

      .cls-3 {
        fill: none;
        stroke: #707071;
        stroke-miterlimit: 10;
        stroke-width: 1.1px;
      }
    </style>
  </defs>
  <g id="Layer_1-2" data-name="Layer 1">
    <line class="cls-3" x1="555.75" y1="29.81" x2=".49" y2="29.81"/>
    <line class="cls-3" x1="555.98" y1=".55" x2="0" y2=".55"/>
    <line class="cls-3" x1="556.2" y1="146.69" x2="1.07" y2="146.69"/>
    <line class="cls-3" x1="556.44" y1="175.78" x2=".37" y2="175.78"/>
    <line class="cls-3" x1="29.88" y1=".6" x2="29.88" y2="176.22"/>
    <line class="cls-3" x1=".55" y1=".52" x2=".55" y2="176.36"/>
    <line class="cls-3" x1="526.56" y1=".58" x2="526.56" y2="175.98"/>
    <line class="cls-3" x1="555.89" y1="0" x2="555.89" y2="176.02"/>
    <text class="cls-1" transform="translate(9.63 22.14)"><tspan x="0" y="0">X</tspan></text>
    <text class="cls-1" transform="translate(10.34 167.56)"><tspan x="0" y="0">X</tspan></text>
    <text class="cls-1" transform="translate(536.21 167.03)"><tspan x="0" y="0">X</tspan></text>
    <text class="cls-1" transform="translate(534.61 20.18)"><tspan x="0" y="0">X</tspan></text>
    <g>
      <g>
        <g>
          <polygon class="cls-2" points="227.96 30.69 220.78 57.01 213.61 30.69 206 30.74 198.82 57.01 191.65 30.69 184.04 30.69 195.26 68.97 202.39 68.97 209.8 43.13 217.22 68.97 224.34 68.97 235.56 30.69 227.96 30.69"/>
          <path class="cls-2" d="M257.23,41.59c-2.11-1.42-4.67-2.13-7.68-2.13-2.84,0-5.34.64-7.52,1.93-2.18,1.29-3.89,3.09-5.13,5.41-1.24,2.32-1.86,5.05-1.86,8.19,0,2.87.63,5.42,1.9,7.64,1.27,2.22,3.02,3.97,5.26,5.24,2.24,1.27,4.83,1.9,7.78,1.9,2.76,0,5.31-.73,7.64-2.18,2.33-1.45,4.04-3.49,5.12-6.11l-7.23-2.07c-.53,1.17-1.3,2.06-2.31,2.69-1.01.62-2.22.93-3.64.93-2.25,0-3.96-.73-5.12-2.19-.85-1.07-1.38-2.47-1.61-4.19h20.15c.3-3.47-.05-6.49-1.06-9.07-1.01-2.57-2.57-4.56-4.68-5.98ZM249.86,45.74c2.11,0,3.63.64,4.56,1.93.61.84,1.02,2.05,1.23,3.6h-12.64c.28-1.33.75-2.43,1.42-3.28,1.16-1.5,2.97-2.25,5.44-2.25Z"/>
          <rect class="cls-2" x="270.28" y="29.89" width="7.23" height="6.38"/>
          <path class="cls-2" d="M270.28,70.67c0,1.38-.31,2.45-.92,3.19s-1.74,1.12-3.39,1.12h-1.28v6.75h4.89c2.43,0,4.36-.69,5.78-2.06,1.43-1.37,2.14-3.2,2.14-5.49v-33.92h-7.23v30.41Z"/>
          <path class="cls-2" d="M303.46,41.2c-1.79-1.15-3.95-1.73-6.49-1.73-2.75,0-5.14.66-7.18,1.97-2.04,1.31-3.62,3.11-4.74,5.38-1.13,2.28-1.69,4.88-1.69,7.8s.55,5.45,1.66,7.74c1.11,2.29,2.65,4.09,4.64,5.42,1.98,1.33,4.3,1.99,6.94,1.99,2.85,0,5.24-.66,7.15-1.99.22-.15.41-.33.61-.49v1.69h6.38V30.69h-7.28v10.51ZM303.72,59.19c-.43,1.31-1.12,2.33-2.09,3.06-.97.73-2.26,1.09-3.87,1.09s-2.84-.39-3.83-1.17c-.99-.78-1.73-1.83-2.21-3.15s-.72-2.79-.72-4.4.25-3.05.74-4.37c.5-1.32,1.26-2.37,2.3-3.16s2.36-1.18,3.97-1.18c1.51,0,2.72.36,3.66,1.09.93.73,1.61,1.75,2.03,3.06s.64,2.84.64,4.57-.21,3.26-.64,4.57Z"/>
          <path class="cls-2" d="M338.79,41.59c-2.11-1.42-4.67-2.13-7.68-2.13-2.84,0-5.34.64-7.52,1.93-2.18,1.29-3.89,3.09-5.13,5.41-1.24,2.32-1.86,5.05-1.86,8.19,0,2.87.63,5.42,1.9,7.64,1.27,2.22,3.02,3.97,5.26,5.24,2.24,1.27,4.83,1.9,7.78,1.9,2.76,0,5.31-.73,7.64-2.18,2.33-1.45,4.04-3.49,5.12-6.11l-7.23-2.07c-.53,1.17-1.3,2.06-2.31,2.69-1.01.62-2.22.93-3.64.93-2.25,0-3.96-.73-5.12-2.19-.85-1.07-1.38-2.47-1.61-4.19h20.15c.3-3.47-.05-6.49-1.06-9.07-1.01-2.57-2.57-4.56-4.68-5.98ZM331.42,45.74c2.11,0,3.63.64,4.56,1.93.61.84,1.02,2.05,1.23,3.6h-12.64c.28-1.33.75-2.43,1.42-3.28,1.16-1.5,2.97-2.25,5.44-2.25Z"/>
          <path class="cls-2" d="M375.9,47.1c-.34-1.27-.9-2.48-1.69-3.65-.79-1.17-1.89-2.14-3.31-2.9-1.42-.76-3.25-1.14-5.5-1.14-2.82,0-5.15.61-7,1.83-.87.58-1.63,1.24-2.3,1.99v-2.97h-6.43v28.71h7.34v-14.57c0-1.79.2-3.23.6-4.31.4-1.08.91-1.9,1.53-2.46.62-.56,1.28-.93,1.99-1.13.71-.19,1.37-.29,1.99-.29,1.54,0,2.73.35,3.58,1.04.84.69,1.45,1.55,1.82,2.58s.59,2.05.66,3.07c.07,1.02.11,1.86.11,2.51v13.56h7.34v-16.11c0-.48-.04-1.24-.11-2.29-.07-1.05-.27-2.2-.61-3.47Z"/>
          <path class="cls-2" d="M420.17,49.76c-1.11-.77-2.26-1.37-3.47-1.81-1.21-.43-2.3-.78-3.3-1.05l-6.65-1.81c-.82-.21-1.61-.48-2.39-.8-.78-.32-1.43-.74-1.94-1.26-.51-.52-.77-1.2-.77-2.03,0-.9.31-1.68.94-2.34.63-.66,1.44-1.16,2.45-1.5,1-.35,2.07-.5,3.2-.47,1.15.04,2.26.27,3.31.72,1.05.44,1.96,1.09,2.72,1.94.76.85,1.28,1.9,1.57,3.14l7.82-1.33c-.62-2.39-1.63-4.42-3.03-6.07-1.4-1.66-3.14-2.92-5.21-3.79-2.07-.87-4.43-1.32-7.07-1.36-2.62-.02-5.02.39-7.18,1.22-2.16.83-3.89,2.1-5.18,3.8-1.29,1.7-1.94,3.84-1.94,6.41,0,1.83.31,3.34.92,4.53.61,1.2,1.38,2.16,2.3,2.88.92.73,1.87,1.28,2.86,1.67s1.85.69,2.59.9l9.94,2.92c.74.23,1.36.49,1.85.77.49.28.86.58,1.13.9s.46.66.57,1.02c.12.36.17.74.17,1.13,0,1.06-.36,1.96-1.08,2.69-.72.73-1.63,1.28-2.75,1.65-1.12.37-2.27.56-3.46.56-2.13,0-4.02-.59-5.69-1.78-1.67-1.19-2.76-2.88-3.3-5.08l-7.55,1.12c.39,2.59,1.32,4.82,2.78,6.69s3.33,3.31,5.61,4.31c2.28,1,4.83,1.5,7.67,1.5,1.95,0,3.84-.25,5.68-.74,1.83-.5,3.48-1.25,4.93-2.25,1.45-1,2.61-2.27,3.47-3.8.86-1.53,1.29-3.33,1.29-5.38,0-1.93-.36-3.53-1.08-4.78-.72-1.26-1.63-2.27-2.74-3.04Z"/>
          <path class="cls-2" d="M450.73,41.43c-2.04-1.31-4.43-1.97-7.18-1.97s-5.02.66-6.89,1.99c-.18.13-.33.28-.51.42v-1.62h-6.38v41.47h7.28v-13.77c1.86,1.2,4.15,1.81,6.86,1.81s4.95-.66,6.94-1.99c1.98-1.33,3.53-3.14,4.64-5.42,1.11-2.29,1.66-4.86,1.66-7.74s-.56-5.52-1.69-7.8c-1.13-2.28-2.71-4.07-4.74-5.38ZM448.79,59.01c-.48,1.32-1.21,2.37-2.21,3.15-.99.78-2.27,1.17-3.83,1.17s-2.9-.36-3.87-1.09c-.97-.73-1.66-1.75-2.09-3.06s-.64-2.84-.64-4.57.21-3.26.64-4.57,1.1-2.33,2.03-3.06c.93-.73,2.15-1.09,3.66-1.09,1.61,0,2.94.39,3.97,1.18s1.8,1.84,2.3,3.16c.5,1.32.74,2.78.74,4.37s-.24,3.08-.72,4.4Z"/>
          <rect class="cls-2" x="463.54" y="29.89" width="7.23" height="6.38"/>
          <rect class="cls-2" x="463.54" y="40.26" width="7.23" height="28.71"/>
          <path class="cls-2" d="M493,40.19c-.87.06-1.71.21-2.53.45-.82.24-1.57.57-2.26,1-.9.53-1.67,1.21-2.29,2.02-.3.39-.56.8-.8,1.23v-4.63h-6.38v28.71h7.28v-14.67c0-1.1.15-2.09.45-2.96.3-.88.74-1.64,1.33-2.29.58-.65,1.3-1.16,2.15-1.55.85-.41,1.8-.65,2.86-.73,1.05-.08,1.98,0,2.78.25v-6.75c-.87-.11-1.74-.13-2.61-.07Z"/>
          <path class="cls-2" d="M522.98,56.64h3.48c.3-3.47-.05-6.49-1.06-9.07-1.01-2.57-2.57-4.56-4.68-5.98-2.11-1.42-4.67-2.13-7.68-2.13-2.84,0-5.34.64-7.52,1.93-2.18,1.29-3.89,3.09-5.13,5.41-1.24,2.32-1.86,5.05-1.86,8.19,0,2.87.63,5.42,1.9,7.64,1.27,2.22,3.02,3.97,5.26,5.24,2.24,1.27,4.83,1.9,7.78,1.9,2.76,0,5.31-.73,7.64-2.18,2.33-1.45,4.04-3.49,5.12-6.11l-7.23-2.07c-.53,1.17-1.3,2.06-2.31,2.69-1.01.62-2.22.93-3.64.93-2.25,0-3.96-.73-5.12-2.19-.85-1.07-1.38-2.47-1.61-4.19h16.67ZM513.36,45.74c2.11,0,3.63.64,4.56,1.93.61.84,1.02,2.05,1.23,3.6h-12.64c.28-1.33.75-2.43,1.42-3.28,1.16-1.5,2.97-2.25,5.44-2.25Z"/>
        </g>
        <g>
          <path class="cls-2" d="M206.45,132.55h0s.22,0,.22,0h6.55c5.6-.06,9.18-4.7,9.18-9.51v-16.45h-6.88l-.06,15.78c0,1.79-.45,3.19-2.52,3.25h-6.38c-1.73,0-2.91-.56-3.69-1.57v-17.4h-6.94v24.29c0,4.03-.95,6.88-2.69,8.06-2.13,1.34-5.04.39-7.05-.67l-2.13,6.49c1.57,1.01,4.2,1.79,6.88,1.79,1.9,0,3.69-.45,5.26-1.23,3.58-1.9,6.38-6.04,6.6-12.98l-.34-.9c.85.48,2.42,1.01,3.97,1.05Z"/>
          <path class="cls-2" d="M209.92,136.65c-2.18,0-3.58,1.46-3.58,3.64s1.4,3.64,3.58,3.64,3.69-1.45,3.69-3.64-1.46-3.64-3.69-3.64Z"/>
          <path class="cls-2" d="M219.43,136.65c-2.18,0-3.64,1.46-3.64,3.64s1.46,3.64,3.64,3.64,3.69-1.45,3.69-3.64-1.46-3.64-3.69-3.64Z"/>
          <polygon class="cls-2" points="321.56 97.42 311.43 100.66 311.43 103.68 321.56 100.44 321.56 97.42"/>
          <path class="cls-2" d="M314.45,136.53c-2.18,0-3.58,1.46-3.58,3.64s1.4,3.64,3.58,3.64,3.69-1.46,3.69-3.64-1.46-3.64-3.69-3.64Z"/>
          <path class="cls-2" d="M355.87,109.11c.9,1.57,1.96,5.09,2.35,8.51.56,4.09-.06,8-3.47,8-2.13,0-3.92-1.51-3.92-4.09v-8.56h-6.94v9.18c0,2.01-1.51,3.53-3.36,3.53s-3.47-1.4-3.47-3.53v-11.98h-6.94v12.03c.06,2.13-1.29,3.41-3.3,3.41h-3.08c-1.9,0-3.02-.45-3.86-1.4v-14.05h-6.88l-.06,12.48c0,1.62-1.34,2.97-2.97,2.97h-70.68c-1.57-.06-2.52-1.23-2.52-2.97v-29.05h-6.88v28.93c0,6.55,2.69,10.02,9.18,10.02h72.58c2.24,0,4.2-.95,5.6-2.41,1.62,1.79,3.92,2.41,6.55,2.41h3.47c4.53,0,6.44-3.47,6.83-5.04.84,3.36,4.14,5.04,6.94,5.04,3.36,0,5.48-1.57,6.38-3.41,1.73,2.35,4.48,3.41,7.28,3.41,6.72,0,9.51-4.76,10.13-10.24.67-4.7-.45-10.47-2.57-14.61l-6.38,1.4Z"/>
          <path class="cls-2" d="M399.35,118.23c2.24,0,3.69-1.46,3.69-3.64s-1.46-3.64-3.69-3.64-3.58,1.46-3.58,3.64,1.4,3.64,3.58,3.64Z"/>
          <path class="cls-2" d="M409.53,130.77c0,5.43-4.14,8.84-9.12,8.84-9.4,0-13.38-8.45-7.95-15.61l-5.65-3.13c-8.73,9.51-2.74,25.74,13.32,25.74,8.73,0,16.34-6.38,16.34-14.83v-18.69h-6.94v17.68Z"/>
          <rect class="cls-2" x="423.58" y="93.61" width="6.88" height="39.01"/>
          <path class="cls-2" d="M492.97,121.87l-.62-5.09c-.95-6.32-6.32-11.08-12.59-11.08-6.88,0-12.65,5.09-12.65,12.87h6.88c0-3.58,2.57-5.93,5.76-5.93,2.85,0,5.2,1.96,5.76,5.04l.5,3.86c.11.67.39,3.08,1.51,4.09h-26.19v-5.37c0-7.61-4.03-14.55-12.65-14.55-6.6,0-10.86,5.32-10.91,5.37l4.76,4.98c.11-.17,2.85-3.41,6.16-3.41,3.92,0,5.71,2.69,5.71,6.88v6.1h-16.96v6.94h58.54v-4.7c-2.29,0-2.74-4.09-3.02-5.99Z"/>
          <path class="cls-2" d="M479.43,136.81c-2.18,0-3.58,1.46-3.58,3.64s1.4,3.64,3.58,3.64,3.69-1.45,3.69-3.64-1.46-3.64-3.69-3.64Z"/>
          <path class="cls-2" d="M514.01,105.7c-6.94,0-12.48,5.65-12.48,12.59v1.57c0,7.44,4.48,12.65,11.64,12.98,1.73,0,4.7-.22,6.44-1.29v1.23c0,4.09-1.9,6.88-6.32,6.88-3.47,0-5.88-2.01-6.6-3.02l-4.59,4.53c1.57,2.24,5.43,5.43,11.47,5.43,7.61,0,12.98-6.44,12.98-14.38v-13.94c0-6.94-5.6-12.59-12.54-12.59ZM519.61,124.22c-.73.5-2.35,1.68-5.37,1.68-3.3-.11-5.82-2.52-5.82-5.6v-2.18c0-3.02,2.57-5.48,5.6-5.48s5.6,2.46,5.6,5.48v6.1Z"/>
        </g>
      </g>
      <g>
        <polygon class="cls-2" points="89.54 55.05 89.54 107.89 99.28 107.89 99.28 55.07 118.62 88.56 125.93 84.35 99.27 38.19 94.42 29.76 89.55 38.19 62.89 84.35 70.19 88.56 89.54 55.05"/>
        <polygon class="cls-2" points="61.32 87.94 56.45 96.37 29.8 142.53 37.09 146.74 61.31 104.8 85.52 146.74 92.83 142.53 66.18 96.37 61.32 87.94"/>
        <polygon class="cls-2" points="131.14 96.37 126.28 87.94 121.41 96.37 94.76 142.53 102.05 146.74 126.27 104.8 150.48 146.74 157.79 142.53 131.14 96.37"/>
      </g>
    </g>
  </g>
</svg>