<?xml version="1.0" encoding="UTF-8"?>
<svg id="Layer_2" data-name="Layer 2" xmlns="http://www.w3.org/2000/svg" viewBox="0 0 306.87 150.96">
  <defs>
    <style>
      .cls-1 {
        fill: #4aaa83;
      }
    </style>
  </defs>
  <g id="Layer_1-2" data-name="Layer 1">
    <g>
      <polygon class="cls-1" points="39.34 105.23 32.91 128.81 26.48 105.23 19.67 105.28 13.24 128.81 6.81 105.23 0 105.23 10.05 139.53 16.43 139.53 23.08 116.38 29.72 139.53 36.1 139.53 46.16 105.23 39.34 105.23"/>
      <path class="cls-1" d="M65.57,115c-1.89-1.27-4.18-1.91-6.88-1.91-2.54,0-4.79.58-6.74,1.73-1.95,1.15-3.49,2.77-4.6,4.85-1.11,2.08-1.67,4.53-1.67,7.34,0,2.57.57,4.85,1.7,6.85,1.13,1.99,2.71,3.56,4.72,4.69,2.01,1.14,4.33,1.7,6.97,1.7,2.48,0,4.76-.65,6.85-1.95,2.09-1.3,3.62-3.13,4.58-5.48l-6.48-1.86c-.48,1.05-1.17,1.85-2.07,2.41-.9.56-1.99.83-3.26.83-2.02,0-3.54-.65-4.58-1.96-.76-.96-1.24-2.21-1.44-3.75h18.06c.27-3.11-.05-5.82-.95-8.12-.9-2.3-2.3-4.09-4.19-5.36ZM58.97,118.71c1.89,0,3.25.58,4.08,1.73.55.76.91,1.84,1.1,3.23h-11.32c.25-1.19.67-2.17,1.27-2.94,1.04-1.34,2.66-2.01,4.87-2.01Z"/>
      <rect class="cls-1" x="77.26" y="104.52" width="6.48" height="5.72"/>
      <path class="cls-1" d="M77.26,141.05c0,1.24-.27,2.19-.82,2.86s-1.56,1-3.04,1h-1.14v6.05h4.38c2.18,0,3.9-.62,5.18-1.85,1.28-1.23,1.92-2.87,1.92-4.92v-30.39h-6.48v27.25Z"/>
      <path class="cls-1" d="M106.98,114.65c-1.6-1.03-3.54-1.55-5.81-1.55-2.46,0-4.6.59-6.43,1.76-1.83,1.17-3.24,2.78-4.25,4.82-1.01,2.04-1.51,4.37-1.51,6.99s.5,4.88,1.49,6.93c.99,2.05,2.38,3.67,4.16,4.86,1.78,1.19,3.85,1.79,6.22,1.79,2.56,0,4.69-.6,6.41-1.79.19-.14.36-.3.55-.44v1.51h5.72v-34.29h-6.53v9.41ZM107.22,130.76c-.38,1.17-1,2.09-1.87,2.74-.87.65-2.02.98-3.47.98s-2.54-.35-3.43-1.05c-.89-.7-1.55-1.64-1.98-2.82s-.64-2.5-.64-3.94.22-2.74.67-3.92c.44-1.18,1.13-2.13,2.06-2.83s2.12-1.06,3.56-1.06c1.35,0,2.44.33,3.27.98.83.65,1.44,1.56,1.82,2.74.38,1.17.57,2.54.57,4.1s-.19,2.92-.57,4.1Z"/>
      <path class="cls-1" d="M138.63,115c-1.89-1.27-4.18-1.91-6.88-1.91-2.54,0-4.79.58-6.74,1.73-1.95,1.15-3.49,2.77-4.6,4.85-1.11,2.08-1.67,4.53-1.67,7.34,0,2.57.57,4.85,1.7,6.85,1.13,1.99,2.71,3.56,4.72,4.69,2.01,1.14,4.33,1.7,6.97,1.7,2.48,0,4.76-.65,6.85-1.95,2.09-1.3,3.62-3.13,4.58-5.48l-6.48-1.86c-.48,1.05-1.17,1.85-2.07,2.41-.9.56-1.99.83-3.26.83-2.02,0-3.54-.65-4.58-1.96-.76-.96-1.24-2.21-1.44-3.75h18.06c.27-3.11-.05-5.82-.95-8.12-.9-2.3-2.3-4.09-4.19-5.36ZM132.04,118.71c1.89,0,3.25.58,4.08,1.73.55.76.91,1.84,1.1,3.23h-11.32c.25-1.19.67-2.17,1.27-2.94,1.04-1.34,2.66-2.01,4.87-2.01Z"/>
      <path class="cls-1" d="M171.88,119.94c-.3-1.13-.81-2.23-1.51-3.27-.71-1.05-1.69-1.91-2.96-2.6-1.27-.68-2.91-1.02-4.93-1.02-2.52,0-4.62.55-6.28,1.64-.78.52-1.46,1.11-2.06,1.78v-2.66h-5.76v25.72h6.57v-13.05c0-1.6.18-2.89.54-3.86.36-.97.81-1.7,1.37-2.2.56-.5,1.15-.84,1.79-1.01.63-.17,1.23-.26,1.79-.26,1.38,0,2.45.31,3.2.93.75.62,1.3,1.39,1.63,2.31.33.92.53,1.84.6,2.75.06.91.1,1.66.1,2.25v12.15h6.57v-14.43c0-.43-.03-1.11-.1-2.05-.06-.94-.25-1.97-.55-3.11Z"/>
      <path class="cls-1" d="M211.54,122.32c-.99-.69-2.03-1.23-3.11-1.62-1.08-.39-2.06-.7-2.95-.94l-5.95-1.62c-.73-.19-1.44-.43-2.14-.71-.7-.29-1.28-.66-1.74-1.13-.46-.47-.69-1.08-.69-1.82,0-.81.28-1.51.85-2.1.56-.59,1.29-1.04,2.19-1.35.9-.31,1.85-.45,2.87-.42,1.03.03,2.02.25,2.97.64.94.4,1.76.98,2.44,1.74.68.76,1.15,1.7,1.41,2.81l7-1.19c-.56-2.14-1.46-3.96-2.71-5.44-1.25-1.48-2.81-2.62-4.67-3.39-1.86-.78-3.97-1.18-6.34-1.21-2.35-.02-4.49.35-6.43,1.1-1.94.75-3.49,1.88-4.64,3.41-1.16,1.52-1.74,3.44-1.74,5.74,0,1.64.27,2.99.82,4.06.55,1.07,1.23,1.93,2.06,2.58.83.65,1.68,1.15,2.56,1.5s1.66.62,2.32.81l8.91,2.62c.67.21,1.22.44,1.66.69.44.25.77.52,1.01.81s.41.59.51.92c.1.33.15.66.15,1.01,0,.95-.32,1.75-.96,2.41-.64.65-1.46,1.14-2.46,1.48-1,.33-2.03.5-3.1.5-1.91,0-3.6-.53-5.1-1.6-1.49-1.06-2.48-2.58-2.95-4.55l-6.76,1c.35,2.32,1.18,4.31,2.49,5.99,1.31,1.68,2.98,2.96,5.03,3.86,2.04.9,4.33,1.35,6.87,1.35,1.75,0,3.44-.22,5.08-.67,1.64-.44,3.12-1.12,4.42-2.01,1.3-.9,2.34-2.03,3.11-3.41.77-1.37,1.16-2.98,1.16-4.82,0-1.73-.32-3.16-.96-4.29-.64-1.13-1.46-2.04-2.45-2.73Z"/>
      <path class="cls-1" d="M238.92,114.86c-1.83-1.17-3.97-1.76-6.43-1.76s-4.5.6-6.17,1.79c-.16.11-.3.25-.45.38v-1.45h-5.72v37.15h6.53v-12.34c1.67,1.08,3.71,1.62,6.14,1.62s4.44-.6,6.22-1.79c1.78-1.19,3.16-2.81,4.16-4.86.99-2.05,1.49-4.36,1.49-6.93s-.5-4.95-1.51-6.99c-1.01-2.04-2.43-3.65-4.25-4.82ZM237.18,130.61c-.43,1.18-1.09,2.12-1.98,2.82-.89.7-2.03,1.05-3.43,1.05s-2.6-.33-3.47-.98c-.87-.65-1.49-1.56-1.87-2.74-.38-1.17-.57-2.54-.57-4.1s.19-2.92.57-4.1c.38-1.17.99-2.09,1.82-2.74.83-.65,1.93-.98,3.27-.98,1.44,0,2.63.35,3.56,1.06s1.62,1.65,2.06,2.83c.44,1.18.67,2.49.67,3.92s-.21,2.76-.64,3.94Z"/>
      <rect class="cls-1" x="250.4" y="104.52" width="6.48" height="5.72"/>
      <rect class="cls-1" x="250.4" y="113.81" width="6.48" height="25.72"/>
      <path class="cls-1" d="M276.79,113.75c-.78.06-1.53.19-2.26.41-.73.21-1.41.51-2.02.89-.81.48-1.49,1.08-2.05,1.81-.26.35-.5.72-.71,1.1v-4.15h-5.72v25.72h6.53v-13.15c0-.98.13-1.87.4-2.66.27-.79.67-1.47,1.19-2.05.52-.58,1.17-1.04,1.93-1.39.76-.37,1.62-.58,2.56-.65.94-.07,1.77,0,2.49.23v-6.05c-.78-.1-1.56-.12-2.33-.06Z"/>
      <path class="cls-1" d="M303.65,128.48h3.12c.27-3.11-.05-5.82-.95-8.12-.9-2.3-2.3-4.09-4.19-5.36-1.89-1.27-4.18-1.91-6.88-1.91-2.54,0-4.79.58-6.74,1.73-1.95,1.15-3.49,2.77-4.6,4.85-1.11,2.08-1.67,4.53-1.67,7.34,0,2.57.57,4.85,1.7,6.85,1.13,1.99,2.71,3.56,4.72,4.69,2.01,1.14,4.33,1.7,6.97,1.7,2.48,0,4.76-.65,6.85-1.95,2.09-1.3,3.62-3.13,4.58-5.48l-6.48-1.86c-.48,1.05-1.17,1.85-2.07,2.41-.9.56-1.99.83-3.26.83-2.02,0-3.54-.65-4.58-1.96-.76-.96-1.24-2.21-1.44-3.75h14.94ZM295.03,118.71c1.89,0,3.25.58,4.08,1.73.55.76.91,1.84,1.1,3.23h-11.32c.25-1.19.67-2.17,1.27-2.94,1.04-1.34,2.66-2.01,4.87-2.01Z"/>
    </g>
    <path class="cls-1" d="M174.04,23.44c2.75-1.94,6.16-1.57,8.33.83.88.97,1.5,2.03,2.02,3.27,2.42,5.8,2.06,12.31-.87,17.94,2.7.61,5.44.91,8.08.35,2.76-.6,4.48-2.73,4.36-5.54-.08-2-.45-3.92-1.09-5.86-3.18-9.61-9.76-17.76-18.47-22.9-7.32-4.32-15.55-6.33-24.06-6.11-11.21.3-21.82,5.1-29.61,13.14-14.1,14.55-15.77,35.99-3.36,52.28,4.77,6.26,10.99,11.03,18.23,14.08,23.55,9.93,49.67-3.67,57.42-27.24.43-1.31,1.48-2.04,2.94-1.92.84.07,1.67.52,2.1,1.11.58.79.56,1.65.26,2.55-4.19,12.82-13.36,23.45-25.52,29.23-16.99,8.07-37.26,5.62-51.88-6.23-4.09-3.31-7.61-7.36-10.44-11.83-7.2-11.38-8.92-25.43-4.66-38.2,2.2-6.6,5.97-12.43,10.77-17.43C126.66,6.55,137.47,1.19,149.09.18c14.46-1.25,28.55,3.91,38.92,14.02,5.64,5.5,9.92,12.35,12.29,19.9.81,2.59,1.16,5.15,1.01,7.78-.33,4.53-3.31,7.95-7.73,9.01-4.25,1.02-8.78.63-13.02-.86-3,5.44-7.32,9.98-12.55,13.21-1.22.75-2.39,1.29-3.76,1.57-2.15.33-4.27-.53-5.28-2.53l-5.81-11.45-11.7,17.19c-1.09,1.6-3,2.3-4.78,2.06-1.73-.24-3.15-1.46-3.85-3.21l-7.18-17.99c-.35-.88-.34-1.82.14-2.6.64-1.03,1.8-1.47,2.98-1.34s2.06.88,2.52,2.07l6.13,15.9,11.69-16.61c.98-1.39,2.67-2.04,4.21-1.97,1.59.07,3.2.87,3.99,2.42l6.17,12.1c5-2.37,8.76-6.6,11.74-11.05-5.52-2.62-8.52-8.41-7.46-14.42.7-3.96,2.97-7.6,6.29-9.95ZM178.67,29.47c-.2-.38-.62-.85-.94-.89-2.1-.28-5.12,4.01-4.7,8.01.29,2.74,1.96,5.37,4.63,6.71,2.07-4.33,3.28-9.43,1.01-13.82Z"/>
  </g>
</svg>