<?xml version="1.0" encoding="UTF-8"?>
<svg id="Layer_2" data-name="Layer 2" xmlns="http://www.w3.org/2000/svg" viewBox="0 0 395.22 66.67">
  <defs>
    <style>
      .cls-1 {
        fill: #229346;
      }
    </style>
  </defs>
  <g id="Layer_1-2" data-name="Layer 1">
    <g>
      <polygon class="cls-1" points="127.69 20.94 121.26 44.52 114.83 20.94 108.02 20.99 101.59 44.52 95.16 20.94 88.35 20.94 98.4 55.24 104.78 55.24 111.43 32.09 118.07 55.24 124.45 55.24 134.5 20.94 127.69 20.94"/>
      <path class="cls-1" d="M153.91,30.7c-1.89-1.27-4.18-1.91-6.88-1.91-2.54,0-4.79.58-6.74,1.73-1.95,1.15-3.49,2.77-4.6,4.85-1.11,2.08-1.67,4.53-1.67,7.34,0,2.57.57,4.85,1.7,6.85,1.13,1.99,2.71,3.56,4.72,4.69,2.01,1.14,4.33,1.7,6.97,1.7,2.48,0,4.76-.65,6.85-1.95,2.09-1.3,3.62-3.13,4.58-5.48l-6.48-1.86c-.48,1.05-1.17,1.85-2.07,2.41-.9.56-1.99.83-3.26.83-2.02,0-3.54-.65-4.58-1.96-.76-.96-1.24-2.21-1.44-3.75h18.06c.27-3.11-.05-5.82-.95-8.12-.9-2.3-2.3-4.09-4.19-5.36ZM147.32,34.42c1.89,0,3.25.58,4.08,1.73.55.76.91,1.84,1.1,3.23h-11.32c.25-1.19.67-2.17,1.27-2.94,1.04-1.34,2.66-2.01,4.87-2.01Z"/>
      <rect class="cls-1" x="165.61" y="20.23" width="6.48" height="5.72"/>
      <path class="cls-1" d="M165.61,56.76c0,1.24-.27,2.19-.82,2.86s-1.56,1-3.04,1h-1.14v6.05h4.38c2.18,0,3.9-.62,5.18-1.85,1.28-1.23,1.92-2.87,1.92-4.92v-30.39h-6.48v27.25Z"/>
      <path class="cls-1" d="M195.33,30.35c-1.6-1.03-3.54-1.55-5.81-1.55-2.46,0-4.6.59-6.43,1.76-1.83,1.17-3.24,2.78-4.25,4.82-1.01,2.04-1.51,4.37-1.51,6.99s.5,4.88,1.49,6.93c.99,2.05,2.38,3.67,4.16,4.86,1.78,1.19,3.85,1.79,6.22,1.79,2.56,0,4.69-.6,6.41-1.79.19-.14.36-.3.55-.44v1.51h5.72V20.94h-6.53v9.41ZM195.57,46.47c-.38,1.17-1,2.09-1.87,2.74-.87.65-2.02.98-3.47.98s-2.54-.35-3.43-1.05c-.89-.7-1.55-1.64-1.98-2.82s-.64-2.5-.64-3.94.22-2.74.67-3.92c.44-1.18,1.13-2.13,2.06-2.83s2.12-1.06,3.56-1.06c1.35,0,2.44.33,3.27.98.83.65,1.44,1.56,1.82,2.74s.57,2.54.57,4.1-.19,2.92-.57,4.1Z"/>
      <path class="cls-1" d="M226.98,30.7c-1.89-1.27-4.18-1.91-6.88-1.91-2.54,0-4.79.58-6.74,1.73-1.95,1.15-3.49,2.77-4.6,4.85-1.11,2.08-1.67,4.53-1.67,7.34,0,2.57.57,4.85,1.7,6.85,1.13,1.99,2.71,3.56,4.72,4.69,2.01,1.14,4.33,1.7,6.97,1.7,2.48,0,4.76-.65,6.85-1.95,2.09-1.3,3.62-3.13,4.58-5.48l-6.48-1.86c-.48,1.05-1.17,1.85-2.07,2.41-.9.56-1.99.83-3.26.83-2.02,0-3.54-.65-4.58-1.96-.76-.96-1.24-2.21-1.44-3.75h18.06c.27-3.11-.05-5.82-.95-8.12-.9-2.3-2.3-4.09-4.19-5.36ZM220.39,34.42c1.89,0,3.25.58,4.08,1.73.55.76.91,1.84,1.1,3.23h-11.32c.25-1.19.67-2.17,1.27-2.94,1.04-1.34,2.66-2.01,4.87-2.01Z"/>
      <path class="cls-1" d="M260.23,35.65c-.3-1.13-.81-2.23-1.51-3.27-.71-1.05-1.69-1.91-2.96-2.6-1.27-.68-2.91-1.02-4.93-1.02-2.52,0-4.62.55-6.28,1.64-.78.52-1.46,1.11-2.06,1.78v-2.66h-5.76v25.72h6.57v-13.05c0-1.6.18-2.89.54-3.86.36-.97.81-1.7,1.37-2.2.56-.5,1.15-.84,1.79-1.01.63-.17,1.23-.26,1.79-.26,1.38,0,2.45.31,3.2.93.75.62,1.3,1.39,1.63,2.31s.53,1.84.6,2.75c.06.91.1,1.66.1,2.25v12.15h6.57v-14.43c0-.43-.03-1.11-.1-2.05-.06-.94-.25-1.97-.55-3.11Z"/>
      <path class="cls-1" d="M299.89,38.03c-.99-.69-2.03-1.23-3.11-1.62-1.08-.39-2.06-.7-2.95-.94l-5.95-1.62c-.73-.19-1.44-.43-2.14-.71-.7-.29-1.28-.66-1.74-1.13-.46-.47-.69-1.08-.69-1.82,0-.81.28-1.51.85-2.1.56-.59,1.29-1.04,2.19-1.35.9-.31,1.85-.45,2.87-.42,1.03.03,2.02.25,2.97.64.94.4,1.76.98,2.44,1.74.68.76,1.15,1.7,1.41,2.81l7-1.19c-.56-2.14-1.46-3.96-2.71-5.44-1.25-1.48-2.81-2.62-4.67-3.39-1.86-.78-3.97-1.18-6.34-1.21-2.35-.02-4.49.35-6.43,1.1-1.94.75-3.49,1.88-4.64,3.41-1.16,1.52-1.74,3.44-1.74,5.74,0,1.64.27,2.99.82,4.06.55,1.07,1.23,1.93,2.06,2.58.83.65,1.68,1.15,2.56,1.5s1.66.62,2.32.81l8.91,2.62c.67.21,1.22.44,1.66.69.44.25.77.52,1.01.81s.41.59.51.92c.1.33.15.66.15,1.01,0,.95-.32,1.75-.96,2.41-.64.65-1.46,1.14-2.46,1.48-1,.33-2.03.5-3.1.5-1.91,0-3.6-.53-5.1-1.6-1.49-1.06-2.48-2.58-2.95-4.55l-6.76,1c.35,2.32,1.18,4.31,2.49,5.99s2.98,2.96,5.03,3.86c2.04.9,4.33,1.35,6.87,1.35,1.75,0,3.44-.22,5.08-.67,1.64-.44,3.12-1.12,4.42-2.01,1.3-.9,2.34-2.03,3.11-3.41.77-1.37,1.16-2.98,1.16-4.82,0-1.73-.32-3.16-.96-4.29-.64-1.13-1.46-2.04-2.45-2.73Z"/>
      <path class="cls-1" d="M327.27,30.56c-1.83-1.17-3.97-1.76-6.43-1.76s-4.5.6-6.17,1.79c-.16.11-.3.25-.45.38v-1.45h-5.72v37.15h6.53v-12.34c1.67,1.08,3.71,1.62,6.14,1.62s4.44-.6,6.22-1.79c1.78-1.19,3.16-2.81,4.16-4.86.99-2.05,1.49-4.36,1.49-6.93s-.5-4.95-1.51-6.99c-1.01-2.04-2.43-3.65-4.25-4.82ZM325.53,46.32c-.43,1.18-1.09,2.12-1.98,2.82-.89.7-2.03,1.05-3.43,1.05s-2.6-.33-3.47-.98c-.87-.65-1.49-1.56-1.87-2.74s-.57-2.54-.57-4.1.19-2.92.57-4.1.99-2.09,1.82-2.74c.83-.65,1.93-.98,3.27-.98,1.44,0,2.63.35,3.56,1.06s1.62,1.65,2.06,2.83c.44,1.18.67,2.49.67,3.92s-.21,2.76-.64,3.94Z"/>
      <rect class="cls-1" x="338.75" y="20.23" width="6.48" height="5.72"/>
      <rect class="cls-1" x="338.75" y="29.51" width="6.48" height="25.72"/>
      <path class="cls-1" d="M365.14,29.45c-.78.06-1.53.19-2.26.41-.73.21-1.41.51-2.02.89-.81.48-1.49,1.08-2.05,1.81-.26.35-.5.72-.71,1.1v-4.15h-5.72v25.72h6.53v-13.15c0-.98.13-1.87.4-2.66.27-.79.67-1.47,1.19-2.05.52-.58,1.17-1.04,1.93-1.39.76-.37,1.62-.58,2.56-.65.94-.07,1.77,0,2.49.23v-6.05c-.78-.1-1.56-.12-2.33-.06Z"/>
      <path class="cls-1" d="M392,44.18h3.12c.27-3.11-.05-5.82-.95-8.12-.9-2.3-2.3-4.09-4.19-5.36-1.89-1.27-4.18-1.91-6.88-1.91-2.54,0-4.79.58-6.74,1.73-1.95,1.15-3.49,2.77-4.6,4.85-1.11,2.08-1.67,4.53-1.67,7.34,0,2.57.57,4.85,1.7,6.85,1.13,1.99,2.71,3.56,4.72,4.69,2.01,1.14,4.33,1.7,6.97,1.7,2.48,0,4.76-.65,6.85-1.95,2.09-1.3,3.62-3.13,4.58-5.48l-6.48-1.86c-.48,1.05-1.17,1.85-2.07,2.41-.9.56-1.99.83-3.26.83-2.02,0-3.54-.65-4.58-1.96-.76-.96-1.24-2.21-1.44-3.75h14.94ZM383.38,34.42c1.89,0,3.25.58,4.08,1.73.55.76.91,1.84,1.1,3.23h-11.32c.25-1.19.67-2.17,1.27-2.94,1.04-1.34,2.66-2.01,4.87-2.01Z"/>
    </g>
    <g>
      <polygon class="cls-1" points="34.05 14.41 34.05 44.53 39.6 44.53 39.6 14.42 50.62 33.51 54.78 31.11 39.59 4.8 36.83 0 34.05 4.8 18.86 31.11 23.02 33.51 34.05 14.41"/>
      <polygon class="cls-1" points="17.96 33.16 15.19 37.96 0 64.27 4.16 66.67 17.96 42.76 31.76 66.67 35.92 64.27 20.73 37.96 17.96 33.16"/>
      <polygon class="cls-1" points="57.75 37.96 54.99 33.16 52.21 37.96 37.02 64.27 41.18 66.67 54.98 42.76 68.78 66.67 72.94 64.27 57.75 37.96"/>
    </g>
  </g>
</svg>