<?xml version="1.0" encoding="UTF-8"?>
<svg id="Layer_2" data-name="Layer 2" xmlns="http://www.w3.org/2000/svg" viewBox="0 0 114.67 104.8">
  <defs>
    <style>
      .cls-1 {
        fill: #4BAA83;
      }
    </style>
  </defs>
  <g id="Layer_1-2" data-name="Layer 1">
    <g>
      <polygon class="cls-1" points="53.52 22.65 53.52 69.99 62.25 69.99 62.25 22.67 79.57 52.68 86.12 48.91 62.24 7.55 57.89 0 53.53 7.55 29.65 48.91 36.19 52.68 53.52 22.65"/>
      <polygon class="cls-1" points="28.24 52.12 23.88 59.67 0 101.03 6.54 104.8 28.23 67.23 49.92 104.8 56.47 101.03 32.59 59.67 28.24 52.12"/>
      <polygon class="cls-1" points="90.79 59.67 86.44 52.12 82.08 59.67 58.2 101.03 64.74 104.8 86.43 67.23 108.12 104.8 114.67 101.03 90.79 59.67"/>
    </g>
  </g>
</svg>