<?xml version="1.0" encoding="UTF-8"?>
<svg id="Layer_2" data-name="Layer 2" xmlns="http://www.w3.org/2000/svg" viewBox="0 0 306.87 242.62">
  <defs>
    <style>
      .cls-1 {
        fill: #229346;
      }
    </style>
  </defs>
  <g id="Layer_1-2" data-name="Layer 1">
    <g>
      <g>
        <polygon class="cls-1" points="39.34 138.77 32.91 162.34 26.48 138.77 19.67 138.81 13.24 162.34 6.81 138.77 0 138.77 10.05 173.06 16.43 173.06 23.08 149.91 29.72 173.06 36.1 173.06 46.16 138.77 39.34 138.77"/>
        <path class="cls-1" d="M65.57,148.53c-1.89-1.27-4.18-1.91-6.88-1.91-2.54,0-4.79.58-6.74,1.73-1.95,1.15-3.49,2.77-4.6,4.85-1.11,2.08-1.67,4.53-1.67,7.34,0,2.57.57,4.85,1.7,6.85,1.13,1.99,2.71,3.56,4.72,4.69,2.01,1.14,4.33,1.7,6.97,1.7,2.48,0,4.76-.65,6.85-1.95,2.09-1.3,3.62-3.13,4.58-5.48l-6.48-1.86c-.48,1.05-1.17,1.85-2.07,2.41-.9.56-1.99.83-3.26.83-2.02,0-3.54-.65-4.58-1.96-.76-.96-1.24-2.21-1.44-3.75h18.06c.27-3.11-.05-5.82-.95-8.12-.9-2.3-2.3-4.09-4.19-5.36ZM58.97,152.25c1.89,0,3.25.58,4.08,1.73.55.76.91,1.84,1.1,3.23h-11.32c.25-1.19.67-2.17,1.27-2.94,1.04-1.34,2.66-2.01,4.87-2.01Z"/>
        <rect class="cls-1" x="77.26" y="138.05" width="6.48" height="5.72"/>
        <path class="cls-1" d="M77.26,174.59c0,1.24-.27,2.19-.82,2.86s-1.56,1-3.04,1h-1.14v6.05h4.38c2.18,0,3.9-.62,5.18-1.85,1.28-1.23,1.92-2.87,1.92-4.92v-30.39h-6.48v27.25Z"/>
        <path class="cls-1" d="M106.98,148.18c-1.6-1.03-3.54-1.55-5.81-1.55-2.46,0-4.6.59-6.43,1.76-1.83,1.17-3.24,2.78-4.25,4.82-1.01,2.04-1.51,4.37-1.51,6.99s.5,4.88,1.49,6.93c.99,2.05,2.38,3.67,4.16,4.86,1.78,1.19,3.85,1.79,6.22,1.79,2.56,0,4.69-.6,6.41-1.79.19-.14.36-.3.55-.44v1.51h5.72v-34.29h-6.53v9.41ZM107.22,164.3c-.38,1.17-1,2.09-1.87,2.74-.87.65-2.02.98-3.47.98s-2.54-.35-3.43-1.05c-.89-.7-1.55-1.64-1.98-2.82s-.64-2.5-.64-3.94.22-2.74.67-3.92c.44-1.18,1.13-2.13,2.06-2.83s2.12-1.06,3.56-1.06c1.35,0,2.44.33,3.27.98.83.65,1.44,1.56,1.82,2.74s.57,2.54.57,4.1-.19,2.92-.57,4.1Z"/>
        <path class="cls-1" d="M138.63,148.53c-1.89-1.27-4.18-1.91-6.88-1.91-2.54,0-4.79.58-6.74,1.73-1.95,1.15-3.49,2.77-4.6,4.85-1.11,2.08-1.67,4.53-1.67,7.34,0,2.57.57,4.85,1.7,6.85,1.13,1.99,2.71,3.56,4.72,4.69,2.01,1.14,4.33,1.7,6.97,1.7,2.48,0,4.76-.65,6.85-1.95,2.09-1.3,3.62-3.13,4.58-5.48l-6.48-1.86c-.48,1.05-1.17,1.85-2.07,2.41-.9.56-1.99.83-3.26.83-2.02,0-3.54-.65-4.58-1.96-.76-.96-1.24-2.21-1.44-3.75h18.06c.27-3.11-.05-5.82-.95-8.12-.9-2.3-2.3-4.09-4.19-5.36ZM132.04,152.25c1.89,0,3.25.58,4.08,1.73.55.76.91,1.84,1.1,3.23h-11.32c.25-1.19.67-2.17,1.27-2.94,1.04-1.34,2.66-2.01,4.87-2.01Z"/>
        <path class="cls-1" d="M171.88,153.47c-.3-1.13-.81-2.23-1.51-3.27-.71-1.05-1.69-1.91-2.96-2.6-1.27-.68-2.91-1.02-4.93-1.02-2.52,0-4.62.55-6.28,1.64-.78.52-1.46,1.11-2.06,1.78v-2.66h-5.76v25.72h6.57v-13.05c0-1.6.18-2.89.54-3.86.36-.97.81-1.7,1.37-2.2.56-.5,1.15-.84,1.79-1.01.63-.17,1.23-.26,1.79-.26,1.38,0,2.45.31,3.2.93.75.62,1.3,1.39,1.63,2.31s.53,1.84.6,2.75c.06.91.1,1.66.1,2.25v12.15h6.57v-14.43c0-.43-.03-1.11-.1-2.05-.06-.94-.25-1.97-.55-3.11Z"/>
        <path class="cls-1" d="M211.54,155.85c-.99-.69-2.03-1.23-3.11-1.62-1.08-.39-2.06-.7-2.95-.94l-5.95-1.62c-.73-.19-1.44-.43-2.14-.71-.7-.29-1.28-.66-1.74-1.13-.46-.47-.69-1.08-.69-1.82,0-.81.28-1.51.85-2.1.56-.59,1.29-1.04,2.19-1.35.9-.31,1.85-.45,2.87-.42,1.03.03,2.02.25,2.97.64.94.4,1.76.98,2.44,1.74.68.76,1.15,1.7,1.41,2.81l7-1.19c-.56-2.14-1.46-3.96-2.71-5.44-1.25-1.48-2.81-2.62-4.67-3.39-1.86-.78-3.97-1.18-6.34-1.21-2.35-.02-4.49.35-6.43,1.1-1.94.75-3.49,1.88-4.64,3.41-1.16,1.52-1.74,3.44-1.74,5.74,0,1.64.27,2.99.82,4.06.55,1.07,1.23,1.93,2.06,2.58.83.65,1.68,1.15,2.56,1.5s1.66.62,2.32.81l8.91,2.62c.67.21,1.22.44,1.66.69.44.25.77.52,1.01.81s.41.59.51.92c.1.33.15.66.15,1.01,0,.95-.32,1.75-.96,2.41-.64.65-1.46,1.14-2.46,1.48-1,.33-2.03.5-3.1.5-1.91,0-3.6-.53-5.1-1.6-1.49-1.06-2.48-2.58-2.95-4.55l-6.76,1c.35,2.32,1.18,4.31,2.49,5.99s2.98,2.96,5.03,3.86c2.04.9,4.33,1.35,6.87,1.35,1.75,0,3.44-.22,5.08-.67,1.64-.44,3.12-1.12,4.42-2.01,1.3-.9,2.34-2.03,3.11-3.41.77-1.37,1.16-2.98,1.16-4.82,0-1.73-.32-3.16-.96-4.29-.64-1.13-1.46-2.04-2.45-2.73Z"/>
        <path class="cls-1" d="M238.92,148.39c-1.83-1.17-3.97-1.76-6.43-1.76s-4.5.6-6.17,1.79c-.16.11-.3.25-.45.38v-1.45h-5.72v37.15h6.53v-12.34c1.67,1.08,3.71,1.62,6.14,1.62s4.44-.6,6.22-1.79c1.78-1.19,3.16-2.81,4.16-4.86.99-2.05,1.49-4.36,1.49-6.93s-.5-4.95-1.51-6.99c-1.01-2.04-2.43-3.65-4.25-4.82ZM237.18,164.14c-.43,1.18-1.09,2.12-1.98,2.82-.89.7-2.03,1.05-3.43,1.05s-2.6-.33-3.47-.98c-.87-.65-1.49-1.56-1.87-2.74s-.57-2.54-.57-4.1.19-2.92.57-4.1.99-2.09,1.82-2.74c.83-.65,1.93-.98,3.27-.98,1.44,0,2.63.35,3.56,1.06s1.62,1.65,2.06,2.83c.44,1.18.67,2.49.67,3.92s-.21,2.76-.64,3.94Z"/>
        <rect class="cls-1" x="250.4" y="138.05" width="6.48" height="5.72"/>
        <rect class="cls-1" x="250.4" y="147.34" width="6.48" height="25.72"/>
        <path class="cls-1" d="M276.79,147.28c-.78.06-1.53.19-2.26.41-.73.21-1.41.51-2.02.89-.81.48-1.49,1.08-2.05,1.81-.26.35-.5.72-.71,1.1v-4.15h-5.72v25.72h6.53v-13.15c0-.98.13-1.87.4-2.66.27-.79.67-1.47,1.19-2.05.52-.58,1.17-1.04,1.93-1.39.76-.37,1.62-.58,2.56-.65.94-.07,1.77,0,2.49.23v-6.05c-.78-.1-1.56-.12-2.33-.06Z"/>
        <path class="cls-1" d="M303.65,162.01h3.12c.27-3.11-.05-5.82-.95-8.12-.9-2.3-2.3-4.09-4.19-5.36-1.89-1.27-4.18-1.91-6.88-1.91-2.54,0-4.79.58-6.74,1.73-1.95,1.15-3.49,2.77-4.6,4.85-1.11,2.08-1.67,4.53-1.67,7.34,0,2.57.57,4.85,1.7,6.85,1.13,1.99,2.71,3.56,4.72,4.69,2.01,1.14,4.33,1.7,6.97,1.7,2.48,0,4.76-.65,6.85-1.95,2.09-1.3,3.62-3.13,4.58-5.48l-6.48-1.86c-.48,1.05-1.17,1.85-2.07,2.41-.9.56-1.99.83-3.26.83-2.02,0-3.54-.65-4.58-1.96-.76-.96-1.24-2.21-1.44-3.75h14.94ZM295.03,152.25c1.89,0,3.25.58,4.08,1.73.55.76.91,1.84,1.1,3.23h-11.32c.25-1.19.67-2.17,1.27-2.94,1.04-1.34,2.66-2.01,4.87-2.01Z"/>
      </g>
      <g>
        <path class="cls-1" d="M20.07,230.02h0s.2,0,.2,0h5.87c5.01-.05,8.22-4.21,8.22-8.52v-14.74h-6.17l-.05,14.14c0,1.6-.4,2.86-2.26,2.91h-5.71c-1.55,0-2.61-.5-3.31-1.4v-15.59h-6.22v21.76c0,3.61-.85,6.17-2.41,7.22-1.91,1.2-4.51.35-6.32-.6L.02,241.01c1.4.9,3.76,1.6,6.17,1.6,1.7,0,3.31-.4,4.71-1.1,3.21-1.7,5.72-5.41,5.92-11.63l-.3-.8c.77.43,2.17.9,3.56.94Z"/>
        <path class="cls-1" d="M23.18,233.69c-1.96,0-3.21,1.3-3.21,3.26s1.25,3.26,3.21,3.26,3.31-1.3,3.31-3.26-1.3-3.26-3.31-3.26Z"/>
        <path class="cls-1" d="M31.7,233.69c-1.96,0-3.26,1.3-3.26,3.26s1.3,3.26,3.26,3.26,3.31-1.3,3.31-3.26-1.3-3.26-3.31-3.26Z"/>
        <polygon class="cls-1" points="123.2 198.55 114.13 201.45 114.13 204.16 123.2 201.25 123.2 198.55"/>
        <path class="cls-1" d="M116.83,233.59c-1.96,0-3.21,1.3-3.21,3.26s1.25,3.26,3.21,3.26,3.31-1.3,3.31-3.26-1.3-3.26-3.31-3.26Z"/>
        <path class="cls-1" d="M153.93,209.02c.8,1.4,1.75,4.56,2.11,7.62.5,3.66-.05,7.17-3.11,7.17-1.91,0-3.51-1.35-3.51-3.66v-7.67h-6.22v8.22c0,1.8-1.35,3.16-3.01,3.16s-3.11-1.25-3.11-3.16v-10.73h-6.22v10.78c.05,1.91-1.15,3.06-2.96,3.06h-2.76c-1.7,0-2.71-.4-3.46-1.25v-12.58h-6.17l-.05,11.18c0,1.45-1.2,2.66-2.66,2.66h-63.32c-1.4-.05-2.26-1.1-2.26-2.66v-26.02h-6.17v25.92c0,5.87,2.41,8.98,8.22,8.98h65.03c2.01,0,3.76-.85,5.01-2.16,1.45,1.6,3.51,2.16,5.87,2.16h3.11c4.06,0,5.77-3.11,6.12-4.51.75,3.01,3.71,4.51,6.22,4.51,3.01,0,4.91-1.4,5.72-3.06,1.55,2.11,4.01,3.06,6.52,3.06,6.02,0,8.52-4.26,9.07-9.18.6-4.21-.4-9.38-2.31-13.09l-5.72,1.25Z"/>
        <path class="cls-1" d="M192.89,217.2c2.01,0,3.31-1.3,3.31-3.26s-1.3-3.26-3.31-3.26-3.21,1.3-3.21,3.26,1.25,3.26,3.21,3.26Z"/>
        <path class="cls-1" d="M202.02,228.43c0,4.86-3.71,7.92-8.17,7.92-8.42,0-11.98-7.57-7.12-13.99l-5.06-2.81c-7.82,8.52-2.46,23.06,11.93,23.06,7.82,0,14.64-5.72,14.64-13.29v-16.75h-6.22v15.84Z"/>
        <rect class="cls-1" x="214.6" y="195.14" width="6.17" height="34.95"/>
        <path class="cls-1" d="M276.77,220.46l-.55-4.56c-.85-5.67-5.67-9.93-11.28-9.93-6.17,0-11.33,4.56-11.33,11.53h6.17c0-3.21,2.31-5.31,5.16-5.31,2.56,0,4.66,1.75,5.16,4.51l.45,3.46c.1.6.35,2.76,1.35,3.66h-23.46v-4.81c0-6.82-3.61-13.04-11.33-13.04-5.92,0-9.73,4.76-9.78,4.81l4.26,4.46c.1-.15,2.56-3.06,5.52-3.06,3.51,0,5.11,2.41,5.11,6.17v5.46h-15.19v6.22h52.44v-4.21c-2.06,0-2.46-3.66-2.71-5.36Z"/>
        <path class="cls-1" d="M264.63,233.84c-1.96,0-3.21,1.3-3.21,3.26s1.25,3.26,3.21,3.26,3.31-1.3,3.31-3.26-1.3-3.26-3.31-3.26Z"/>
        <path class="cls-1" d="M295.62,205.97c-6.22,0-11.18,5.06-11.18,11.28v1.4c0,6.67,4.01,11.33,10.43,11.63,1.55,0,4.21-.2,5.77-1.15v1.1c0,3.66-1.7,6.17-5.67,6.17-3.11,0-5.26-1.8-5.92-2.71l-4.11,4.06c1.4,2.01,4.86,4.86,10.28,4.86,6.82,0,11.63-5.77,11.63-12.89v-12.48c0-6.22-5.01-11.28-11.23-11.28ZM300.63,222.56c-.65.45-2.11,1.5-4.81,1.5-2.96-.1-5.21-2.26-5.21-5.01v-1.96c0-2.71,2.31-4.91,5.01-4.91s5.01,2.21,5.01,4.91v5.46Z"/>
      </g>
    </g>
    <g>
      <polygon class="cls-1" points="149.04 26.14 149.04 80.77 159.11 80.77 159.11 26.16 179.1 60.79 186.65 56.44 159.1 8.72 154.08 0 149.04 8.72 121.49 56.44 129.03 60.79 149.04 26.14"/>
      <polygon class="cls-1" points="119.86 60.15 114.83 68.86 87.27 116.58 94.81 120.94 119.85 77.58 144.88 120.94 152.44 116.58 124.88 68.86 119.86 60.15"/>
      <polygon class="cls-1" points="192.04 68.86 187.02 60.15 181.99 68.86 154.43 116.58 161.97 120.94 187.01 77.58 212.04 120.94 219.6 116.58 192.04 68.86"/>
    </g>
  </g>
</svg>